<svg width="50" height="50" viewBox="0 0 50 50" fill="none" xmlns="http://www.w3.org/2000/svg">
<path d="M14.8281 9.57501C14.5903 9.44134 14.3217 9.37226 14.0489 9.37463C13.7761 9.37701 13.5087 9.45075 13.2733 9.58854C13.0379 9.72632 12.8426 9.92334 12.7069 10.16C12.5713 10.3967 12.4999 10.6647 12.5 10.9375V39.0625C12.4999 39.3353 12.5713 39.6033 12.7069 39.84C12.8426 40.0767 13.0379 40.2737 13.2733 40.4115C13.5087 40.5493 13.7761 40.623 14.0489 40.6254C14.3217 40.6278 14.5903 40.5587 14.8281 40.425L39.8281 26.3625C40.0701 26.2267 40.2715 26.0289 40.4117 25.7894C40.5519 25.55 40.6258 25.2775 40.6258 25C40.6258 24.7225 40.5519 24.4501 40.4117 24.2106C40.2715 23.9711 40.0701 23.7733 39.8281 23.6375L14.8281 9.57501ZM9.375 10.9375C9.37532 10.1194 9.58974 9.31564 9.99696 8.60608C10.4042 7.89653 10.99 7.30591 11.6962 6.89293C12.4024 6.47995 13.2044 6.25898 14.0225 6.252C14.8406 6.24502 15.6462 6.45226 16.3594 6.85313L41.3594 20.9156C42.0845 21.3233 42.6881 21.9167 43.1081 22.6347C43.5281 23.3528 43.7495 24.1697 43.7495 25.0016C43.7495 25.8335 43.5281 26.6504 43.1081 27.3684C42.6881 28.0865 42.0845 28.6798 41.3594 29.0875L16.3594 43.15C15.646 43.551 14.84 43.7583 14.0217 43.7511C13.2034 43.744 12.4012 43.5228 11.6949 43.1094C10.9886 42.6961 10.4028 42.105 9.99579 41.395C9.5888 40.685 9.37477 39.8809 9.375 39.0625V10.9375Z" fill="#545454"/>
</svg>
