<svg width="30" height="30" viewBox="0 0 30 30" fill="none" xmlns="http://www.w3.org/2000/svg">
<path d="M13.75 16.25H7.5C7.14584 16.25 6.84917 16.13 6.61 15.89C6.37084 15.65 6.25084 15.3533 6.25 15C6.24917 14.6467 6.36917 14.35 6.61 14.11C6.85084 13.87 7.1475 13.75 7.5 13.75H13.75V7.5C13.75 7.14584 13.87 6.84917 14.11 6.61C14.35 6.37084 14.6467 6.25084 15 6.25C15.3533 6.24917 15.6504 6.36917 15.8913 6.61C16.1321 6.85084 16.2517 7.1475 16.25 7.5V13.75H22.5C22.8542 13.75 23.1513 13.87 23.3913 14.11C23.6313 14.35 23.7508 14.6467 23.75 15C23.7492 15.3533 23.6292 15.6504 23.39 15.8913C23.1508 16.1321 22.8542 16.2517 22.5 16.25H16.25V22.5C16.25 22.8542 16.13 23.1513 15.89 23.3913C15.65 23.6313 15.3533 23.7508 15 23.75C14.6467 23.7492 14.35 23.6292 14.11 23.39C13.87 23.1508 13.75 22.8542 13.75 22.5V16.25Z" fill="#545454"/>
</svg>
