<svg width="50" height="50" viewBox="0 0 50 50" fill="none" xmlns="http://www.w3.org/2000/svg">
<path d="M22.917 27.0834H12.5003C11.9101 27.0834 11.4156 26.8834 11.017 26.4834C10.6184 26.0834 10.4184 25.589 10.417 25.0001C10.4156 24.4112 10.6156 23.9168 11.017 23.5168C11.4184 23.1168 11.9128 22.9168 12.5003 22.9168H22.917V12.5001C22.917 11.9098 23.117 11.4154 23.517 11.0168C23.917 10.6181 24.4114 10.4181 25.0003 10.4168C25.5892 10.4154 26.0844 10.6154 26.4857 11.0168C26.8871 11.4181 27.0864 11.9126 27.0837 12.5001V22.9168H37.5003C38.0906 22.9168 38.5857 23.1168 38.9857 23.5168C39.3857 23.9168 39.5851 24.4112 39.5837 25.0001C39.5823 25.589 39.3823 26.0841 38.9837 26.4855C38.5851 26.8869 38.0906 27.0862 37.5003 27.0834H27.0837V37.5001C27.0837 38.0904 26.8837 38.5855 26.4837 38.9855C26.0837 39.3855 25.5892 39.5848 25.0003 39.5834C24.4114 39.582 23.917 39.382 23.517 38.9834C23.117 38.5848 22.917 38.0904 22.917 37.5001V27.0834Z" fill="white"/>
</svg>
