<svg width="58" height="58" viewBox="0 0 58 58" fill="none" xmlns="http://www.w3.org/2000/svg">
<path d="M26.5859 24.1666H31.4192V36.25H26.5859V24.1666ZM26.5835 38.6666H31.4168V43.5H26.5835V38.6666Z" fill="#FFCD29"/>
<path d="M33.2725 10.15C32.4315 8.56708 30.793 7.5835 28.9998 7.5835C27.2066 7.5835 25.5681 8.56708 24.7271 10.1524L6.99364 43.6547C6.60106 44.3906 6.40666 45.2161 6.42954 46.0499C6.45242 46.8838 6.69179 47.6973 7.12414 48.4107C7.55043 49.1276 8.15671 49.7206 8.88287 50.1309C9.60902 50.5413 10.4298 50.7547 11.2639 50.75H46.7357C48.4467 50.75 49.9958 49.8752 50.8779 48.4107C51.3102 47.6973 51.5496 46.8838 51.5725 46.0499C51.5954 45.2161 51.401 44.3906 51.0084 43.6547L33.2725 10.15ZM11.2639 45.9167L28.9998 12.4144L46.7478 45.9167H11.2639Z" fill="#FFCD29"/>
</svg>
