<svg width="75" height="75" viewBox="0 0 75 75" fill="none" xmlns="http://www.w3.org/2000/svg">
<path d="M27.8459 35.5805C28.6665 35.5805 29.4534 35.2545 30.0337 34.6743C30.6139 34.0941 30.9399 33.3071 30.9399 32.4865C30.9399 31.666 30.6139 30.879 30.0337 30.2988C29.4534 29.7185 28.6665 29.3926 27.8459 29.3926C27.0253 29.3926 26.2384 29.7185 25.6582 30.2988C25.0779 30.879 24.752 31.666 24.752 32.4865C24.752 33.3071 25.0779 34.0941 25.6582 34.6743C26.2384 35.2545 27.0253 35.5805 27.8459 35.5805ZM34.0338 32.4865C34.0338 31.666 34.3598 30.879 34.94 30.2988C35.5202 29.7185 36.3072 29.3926 37.1278 29.3926H46.4096C47.2302 29.3926 48.0172 29.7185 48.5974 30.2988C49.1776 30.879 49.5036 31.666 49.5036 32.4865C49.5036 33.3071 49.1776 34.0941 48.5974 34.6743C48.0172 35.2545 47.2302 35.5805 46.4096 35.5805H37.1278C36.3072 35.5805 35.5202 35.2545 34.94 34.6743C34.3598 34.0941 34.0338 33.3071 34.0338 32.4865ZM37.1278 38.6744C36.3072 38.6744 35.5202 39.0004 34.94 39.5806C34.3598 40.1609 34.0338 40.9478 34.0338 41.7684C34.0338 42.589 34.3598 43.3759 34.94 43.9561C35.5202 44.5364 36.3072 44.8623 37.1278 44.8623H46.4096C47.2302 44.8623 48.0172 44.5364 48.5974 43.9561C49.1776 43.3759 49.5036 42.589 49.5036 41.7684C49.5036 40.9478 49.1776 40.1609 48.5974 39.5806C48.0172 39.0004 47.2302 38.6744 46.4096 38.6744H37.1278ZM37.1278 47.9563C36.3072 47.9563 35.5202 48.2823 34.94 48.8625C34.3598 49.4427 34.0338 50.2297 34.0338 51.0503C34.0338 51.8708 34.3598 52.6578 34.94 53.238C35.5202 53.8182 36.3072 54.1442 37.1278 54.1442H46.4096C47.2302 54.1442 48.0172 53.8182 48.5974 53.238C49.1776 52.6578 49.5036 51.8708 49.5036 51.0503C49.5036 50.2297 49.1776 49.4427 48.5974 48.8625C48.0172 48.2823 47.2302 47.9563 46.4096 47.9563H37.1278ZM30.9399 41.7684C30.9399 42.589 30.6139 43.3759 30.0337 43.9561C29.4534 44.5364 28.6665 44.8623 27.8459 44.8623C27.0253 44.8623 26.2384 44.5364 25.6582 43.9561C25.0779 43.3759 24.752 42.589 24.752 41.7684C24.752 40.9478 25.0779 40.1609 25.6582 39.5806C26.2384 39.0004 27.0253 38.6744 27.8459 38.6744C28.6665 38.6744 29.4534 39.0004 30.0337 39.5806C30.6139 40.1609 30.9399 40.9478 30.9399 41.7684ZM27.8459 54.1442C28.6665 54.1442 29.4534 53.8182 30.0337 53.238C30.6139 52.6578 30.9399 51.8708 30.9399 51.0503C30.9399 50.2297 30.6139 49.4427 30.0337 48.8625C29.4534 48.2823 28.6665 47.9563 27.8459 47.9563C27.0253 47.9563 26.2384 48.2823 25.6582 48.8625C25.0779 49.4427 24.752 50.2297 24.752 51.0503C24.752 51.8708 25.0779 52.6578 25.6582 53.238C26.2384 53.8182 27.0253 54.1442 27.8459 54.1442Z" fill="#545454"/>
<path d="M27.8457 6.18787C27.0252 6.18787 26.2382 6.51384 25.658 7.09406C25.0778 7.67429 24.7518 8.46125 24.7518 9.28182H18.5639C16.9227 9.28182 15.3488 9.93376 14.1884 11.0942C13.0279 12.2547 12.376 13.8286 12.376 15.4697V61.879C12.376 63.5202 13.0279 65.0941 14.1884 66.2545C15.3488 67.415 16.9227 68.0669 18.5639 68.0669H55.6913C57.3325 68.0669 58.9064 67.415 60.0668 66.2545C61.2273 65.0941 61.8792 63.5202 61.8792 61.879V15.4697C61.8792 13.8286 61.2273 12.2547 60.0668 11.0942C58.9064 9.93376 57.3325 9.28182 55.6913 9.28182H49.5034C49.5034 8.46125 49.1775 7.67429 48.5972 7.09406C48.017 6.51384 47.23 6.18787 46.4095 6.18787H27.8457ZM49.5034 15.4697H55.6913V61.879H18.5639V15.4697H24.7518V18.5637C24.7518 19.3842 25.0778 20.1712 25.658 20.7514C26.2382 21.3317 27.0252 21.6576 27.8457 21.6576H46.4095C47.23 21.6576 48.017 21.3317 48.5972 20.7514C49.1775 20.1712 49.5034 19.3842 49.5034 18.5637V15.4697ZM30.9397 15.4697V12.3758H43.3155V15.4697H30.9397Z" fill="#545454"/>
</svg>
