<svg width="75" height="75" viewBox="0 0 75 75" fill="none" xmlns="http://www.w3.org/2000/svg">
<path d="M67.1574 16.3701L57.8787 7.09439C57.2986 6.51413 56.5117 6.18804 55.6912 6.18787H18.5638C17.7433 6.18804 16.9565 6.51413 16.3764 7.09439L7.09761 16.3701C6.80936 16.6574 6.58064 16.9988 6.42455 17.3747C6.26846 17.7506 6.18807 18.1536 6.18799 18.5606V58.7851C6.18799 62.1977 8.96326 64.973 12.3759 64.973H61.8792C65.2918 64.973 68.0671 62.1977 68.0671 58.7851V18.5606C68.067 18.1536 67.9866 17.7506 67.8305 17.3747C67.6744 16.9988 67.4457 16.6574 67.1574 16.3701ZM19.8447 12.3758H54.4104L57.5012 15.4666H16.7538L19.8447 12.3758ZM12.3759 58.7851V21.6545H61.8792L61.8853 58.7851H12.3759Z" fill="#545454"/>
<path d="M46.4093 37.1275H27.8456V30.9396H21.6577V43.3154H52.5973V30.9396H46.4093V37.1275Z" fill="#545454"/>
</svg>
