<svg width="39" height="39" viewBox="0 0 39 39" fill="none" xmlns="http://www.w3.org/2000/svg">
<path d="M19.2229 27.2323C19.6768 27.2323 20.0575 27.0785 20.365 26.7709C20.6726 26.4634 20.8258 26.0832 20.8248 25.6304C20.8237 25.1776 20.6699 24.7974 20.3634 24.4899C20.0569 24.1823 19.6768 24.0285 19.2229 24.0285C18.769 24.0285 18.3888 24.1823 18.0823 24.4899C17.7759 24.7974 17.6221 25.1776 17.621 25.6304C17.6199 26.0832 17.7737 26.4639 18.0823 26.7725C18.391 27.0812 18.7712 27.2344 19.2229 27.2323ZM19.2229 20.8248C19.6768 20.8248 20.0575 20.671 20.365 20.3634C20.6726 20.0559 20.8258 19.6757 20.8248 19.2229V12.8154C20.8248 12.3615 20.671 11.9813 20.3634 11.6748C20.0559 11.3683 19.6757 11.2146 19.2229 11.2135C18.7701 11.2124 18.3899 11.3662 18.0823 11.6748C17.7748 11.9835 17.621 12.3636 17.621 12.8154V19.2229C17.621 19.6768 17.7748 20.0575 18.0823 20.365C18.3899 20.6726 18.7701 20.8258 19.2229 20.8248ZM19.2229 35.2417C17.007 35.2417 14.9245 34.8209 12.9756 33.9794C11.0266 33.1379 9.33129 31.9968 7.8896 30.5562C6.44791 29.1156 5.30684 27.4202 4.46638 25.4702C3.62593 23.5202 3.20517 21.4377 3.2041 19.2229C3.20304 17.008 3.6238 14.9256 4.46638 12.9756C5.30897 11.0255 6.45004 9.33022 7.8896 7.8896C9.32915 6.44897 11.0245 5.3079 12.9756 4.46638C14.9267 3.62486 17.0091 3.2041 19.2229 3.2041C21.4367 3.2041 23.5191 3.62486 25.4702 4.46638C27.4213 5.3079 29.1166 6.44897 30.5562 7.8896C31.9957 9.33022 33.1373 11.0255 33.981 12.9756C34.8246 14.9256 35.2449 17.008 35.2417 19.2229C35.2385 21.4377 34.8177 23.5202 33.9794 25.4702C33.1411 27.4202 32 29.1156 30.5562 30.5562C29.1124 31.9968 27.417 33.1384 25.4702 33.981C23.5234 34.8236 21.441 35.2438 19.2229 35.2417ZM19.2229 32.0379C22.8004 32.0379 25.8306 30.7965 28.3135 28.3135C30.7965 25.8306 32.0379 22.8004 32.0379 19.2229C32.0379 15.6454 30.7965 12.6151 28.3135 10.1322C25.8306 7.64931 22.8004 6.40786 19.2229 6.40786C15.6454 6.40786 12.6151 7.64931 10.1322 10.1322C7.64932 12.6151 6.40786 15.6454 6.40786 19.2229C6.40786 22.8004 7.64932 25.8306 10.1322 28.3135C12.6151 30.7965 15.6454 32.0379 19.2229 32.0379Z" fill="#115153"/>
</svg>
