<svg width="50" height="50" viewBox="0 0 50 50" fill="none" xmlns="http://www.w3.org/2000/svg">
<path d="M36.4583 24.9999C39.4973 24.9999 42.4117 26.2071 44.5606 28.356C46.7094 30.5048 47.9167 33.4193 47.9167 36.4583C47.9167 39.4972 46.7094 42.4117 44.5606 44.5605C42.4117 46.7094 39.4973 47.9166 36.4583 47.9166C33.4194 47.9166 30.5049 46.7094 28.3561 44.5605C26.2072 42.4117 25 39.4972 25 36.4583C25 33.4193 26.2072 30.5048 28.3561 28.356C30.5049 26.2071 33.4194 24.9999 36.4583 24.9999ZM25.0479 29.1666C23.6531 31.3425 22.9133 33.8736 22.9167 36.4583C22.9167 39.8833 24.1875 43.0124 26.2854 45.3958C24.6146 45.6902 22.7972 45.8367 20.8333 45.8353C14.8125 45.8353 10.15 44.4687 6.89582 41.6687C6.04235 40.9353 5.35738 40.0262 4.88778 39.0036C4.41819 37.981 4.17504 36.869 4.17499 35.7437V33.8541C4.17499 32.6109 4.66885 31.4186 5.54792 30.5395C6.427 29.6604 7.61929 29.1666 8.86249 29.1666H25.0479ZM31.4437 31.1791L31.3 31.2999L31.1792 31.4458C31.0591 31.6197 30.9948 31.8261 30.9948 32.0374C30.9948 32.2488 31.0591 32.4551 31.1792 32.6291L31.3 32.7749L34.9875 36.4603L31.3062 40.1416L31.1854 40.2853C31.0649 40.4595 31.0003 40.6663 31.0003 40.878C31.0003 41.0898 31.0649 41.2966 31.1854 41.4708L31.3062 41.6145L31.45 41.7353C31.6242 41.8558 31.8309 41.9204 32.0427 41.9204C32.2545 41.9204 32.4612 41.8558 32.6354 41.7353L32.7792 41.6145L36.4604 37.9333L40.1458 41.6208L40.2896 41.7395C40.4637 41.86 40.6705 41.9246 40.8823 41.9246C41.0941 41.9246 41.3008 41.86 41.475 41.7395L41.6187 41.6187L41.7396 41.4728C41.8596 41.2989 41.9239 41.0925 41.9239 40.8812C41.9239 40.6698 41.8596 40.4635 41.7396 40.2895L41.6187 40.1458L37.9312 36.4583L41.625 32.7749L41.7458 32.6291C41.8659 32.4551 41.9302 32.2488 41.9302 32.0374C41.9302 31.8261 41.8659 31.6197 41.7458 31.4458L41.625 31.2999L41.4792 31.1812C41.3052 31.0611 41.0988 30.9968 40.8875 30.9968C40.6761 30.9968 40.4698 31.0611 40.2958 31.1812L40.15 31.2999L36.4604 34.9874L32.7729 31.2999L32.6292 31.1812C32.4809 31.0784 32.3084 31.016 32.1288 30.9999C31.9491 30.9839 31.7683 31.0147 31.6042 31.0895L31.4437 31.1791ZM20.8333 4.177C22.2013 4.177 23.5558 4.44644 24.8196 4.96992C26.0834 5.49341 27.2317 6.2607 28.199 7.22797C29.1663 8.19525 29.9336 9.34357 30.4571 10.6074C30.9806 11.8712 31.25 13.2257 31.25 14.5937C31.25 15.9616 30.9806 17.3161 30.4571 18.58C29.9336 19.8438 29.1663 20.9921 28.199 21.9594C27.2317 22.9266 26.0834 23.6939 24.8196 24.2174C23.5558 24.7409 22.2013 25.0103 20.8333 25.0103C18.0707 25.0103 15.4211 23.9129 13.4676 21.9594C11.5141 20.0059 10.4167 17.3563 10.4167 14.5937C10.4167 11.831 11.5141 9.18148 13.4676 7.22797C15.4211 5.27447 18.0707 4.177 20.8333 4.177Z" fill="white"/>
</svg>
