<svg width="58" height="58" viewBox="0 0 58 58" fill="none" xmlns="http://www.w3.org/2000/svg">
<path fill-rule="evenodd" clip-rule="evenodd" d="M41.2822 25.1283C41.2822 27.2497 40.8644 29.3503 40.0526 31.3101C39.2408 33.27 38.0509 35.0508 36.5509 36.5509C35.0508 38.0509 33.27 39.2408 31.3101 40.0526C29.3503 40.8644 27.2497 41.2822 25.1283 41.2822C23.0069 41.2822 20.9063 40.8644 18.9464 40.0526C16.9865 39.2408 15.2057 38.0509 13.7057 36.5509C12.2057 35.0508 11.0158 33.27 10.204 31.3101C9.39216 29.3503 8.97433 27.2497 8.97433 25.1283C8.97433 20.844 10.6763 16.7352 13.7057 13.7057C16.7352 10.6763 20.844 8.97433 25.1283 8.97433C29.4126 8.97433 33.5214 10.6763 36.5509 13.7057C39.5803 16.7352 41.2822 20.844 41.2822 25.1283ZM38.3386 42.1438C34.0107 45.5037 28.565 47.088 23.1101 46.5741C17.6552 46.0601 12.6012 43.4867 8.97702 39.3775C5.35281 35.2684 3.43083 29.9325 3.60237 24.4561C3.7739 18.9797 6.02605 13.7746 9.90032 9.90032C13.7746 6.02605 18.9797 3.7739 24.4561 3.60237C29.9325 3.43083 35.2684 5.35281 39.3775 8.97702C43.4867 12.6012 46.0601 17.6552 46.5741 23.1101C47.088 28.565 45.5037 34.0107 42.1438 38.3386L52.1592 48.3541C52.4238 48.6006 52.6359 48.8978 52.7831 49.2281C52.9302 49.5583 53.0094 49.9148 53.0157 50.2763C53.0221 50.6378 52.9556 50.9969 52.8202 51.3322C52.6848 51.6674 52.4832 51.9719 52.2276 52.2276C51.9719 52.4832 51.6674 52.6848 51.3322 52.8202C50.9969 52.9556 50.6378 53.0221 50.2763 53.0157C49.9148 53.0094 49.5583 52.9302 49.2281 52.7831C48.8978 52.6359 48.6006 52.4238 48.3541 52.1592L38.3386 42.1438Z" fill="#545454"/>
</svg>
