<svg width="50" height="50" viewBox="0 0 50 50" fill="none" xmlns="http://www.w3.org/2000/svg">
<path d="M3.57153 25C3.57153 13.1652 13.1653 3.57141 25.0001 3.57141C36.8349 3.57141 46.4287 13.1652 46.4287 25C46.4287 36.8348 36.8349 46.4286 25.0001 46.4286C13.1653 46.4286 3.57153 36.8348 3.57153 25ZM25.5117 26.5571C28.1671 27.2107 28.9626 28.0768 28.9626 29.5393C28.9626 31.0589 27.9403 32.2089 25.5117 32.3937V26.5571ZM23.9072 23.2777C21.6358 22.7089 20.7831 21.758 20.7831 20.4652C20.7831 19.1723 21.8626 17.9946 23.9081 17.7393L23.9072 23.2777ZM25.5117 23.6607V17.7393C27.3296 17.9661 28.6072 19.0027 28.7921 20.7928H31.7456C31.6322 17.5696 29.0617 15.4393 25.5117 15.1544V12.7553H23.9072V15.1544C20.3287 15.425 17.7733 17.5259 17.7733 20.7071C17.7733 23.5893 19.7189 25.2089 23.3251 26.0464L23.9072 26.1884V32.3794C21.6215 32.1384 20.5421 30.9169 20.2867 29.2553H17.3474C17.4456 32.6634 20.301 34.6937 23.9072 34.9643V37.3491H25.5117V34.9643C29.1331 34.708 31.9733 32.7348 31.9733 29.2553C31.9733 26.2312 29.9287 24.6973 26.1939 23.8312L25.5117 23.6607Z" fill="#1D8F93"/>
</svg>
