<svg width="37" height="37" viewBox="0 0 37 37" fill="none" xmlns="http://www.w3.org/2000/svg">
<path d="M11.7333 27.5L18.3333 20.9L24.9333 27.5L27.5 24.9333L20.9 18.3333L27.5 11.7333L24.9333 9.16667L18.3333 15.7667L11.7333 9.16667L9.16667 11.7333L15.7667 18.3333L9.16667 24.9333L11.7333 27.5ZM18.3333 36.6667C15.7972 36.6667 13.4139 36.1851 11.1833 35.222C8.95278 34.2589 7.0125 32.9529 5.3625 31.3042C3.7125 29.6554 2.40656 27.7151 1.44467 25.4833C0.48278 23.2516 0.00122454 20.8682 2.32067e-06 18.3333C-0.0012199 15.7984 0.480336 13.4151 1.44467 11.1833C2.409 8.95156 3.71495 7.01128 5.3625 5.3625C7.01006 3.71372 8.95034 2.40778 11.1833 1.44467C13.4163 0.481556 15.7997 0 18.3333 0C20.867 0 23.2503 0.481556 25.4833 1.44467C27.7163 2.40778 29.6566 3.71372 31.3042 5.3625C32.9517 7.01128 34.2583 8.95156 35.2238 11.1833C36.1894 13.4151 36.6703 15.7984 36.6667 18.3333C36.663 20.8682 36.1814 23.2516 35.222 25.4833C34.2626 27.7151 32.9566 29.6554 31.3042 31.3042C29.6517 32.9529 27.7114 34.2595 25.4833 35.2238C23.2552 36.1882 20.8719 36.6691 18.3333 36.6667ZM18.3333 33C22.4278 33 25.8958 31.5792 28.7375 28.7375C31.5792 25.8958 33 22.4278 33 18.3333C33 14.2389 31.5792 10.7708 28.7375 7.92917C25.8958 5.0875 22.4278 3.66667 18.3333 3.66667C14.2389 3.66667 10.7708 5.0875 7.92917 7.92917C5.0875 10.7708 3.66667 14.2389 3.66667 18.3333C3.66667 22.4278 5.0875 25.8958 7.92917 28.7375C10.7708 31.5792 14.2389 33 18.3333 33Z" fill="white"/>
</svg>
