<svg width="50" height="50" viewBox="0 0 50 50" fill="none" xmlns="http://www.w3.org/2000/svg">
<path d="M18.75 10.4166H14.5833C13.4327 10.4166 12.5 11.3494 12.5 12.5V37.5C12.5 38.6506 13.4327 39.5833 14.5833 39.5833H18.75C19.9006 39.5833 20.8333 38.6506 20.8333 37.5V12.5C20.8333 11.3494 19.9006 10.4166 18.75 10.4166Z" stroke="#545454" stroke-linecap="round"/>
<path d="M35.4167 10.4166H31.2501C30.0995 10.4166 29.1667 11.3494 29.1667 12.5V37.5C29.1667 38.6506 30.0995 39.5833 31.2501 39.5833H35.4167C36.5673 39.5833 37.5001 38.6506 37.5001 37.5V12.5C37.5001 11.3494 36.5673 10.4166 35.4167 10.4166Z" stroke="#545454" stroke-linecap="round"/>
</svg>
