<svg width="58" height="58" viewBox="0 0 58 58" fill="none" xmlns="http://www.w3.org/2000/svg">
<path fill-rule="evenodd" clip-rule="evenodd" d="M48.0265 29.7251L28.6134 49.0536C26.0261 51.5796 22.5462 52.9823 18.9304 52.9567C15.3145 52.9311 11.8549 51.4793 9.30357 48.9169C6.75228 46.3544 5.31555 42.8885 5.30571 39.2726C5.29588 35.6566 6.71373 32.1829 9.25105 29.6066L28.6641 10.2781C31.2514 7.75207 34.7313 6.34938 38.3471 6.37498C41.963 6.40058 45.4226 7.8524 47.9739 10.4148C50.5252 12.9773 51.962 16.4432 51.9718 20.0591C51.9816 23.6751 50.5638 27.1488 48.0265 29.7251ZM44.6431 13.7316C42.9796 12.0631 40.7219 11.1229 38.3658 11.1174C36.0097 11.112 33.7477 12.0418 32.0765 13.7026L12.661 33.0311C10.9904 34.6943 10.0489 36.9531 10.0437 39.3104C10.0385 41.6678 10.9699 43.9307 12.6332 45.6013C14.2964 47.272 16.5552 48.2134 18.9126 48.2186C21.2699 48.2239 23.5329 47.2924 25.2035 45.6291L44.6165 26.3006C46.2858 24.637 47.2264 22.3788 47.2319 20.0221C47.2373 17.6654 46.3071 15.4029 44.6455 13.7316H44.6431Z" fill="#FFCD29"/>
<path fill-rule="evenodd" clip-rule="evenodd" d="M19.6187 20.5998C20.0719 20.1467 20.6865 19.8922 21.3273 19.8922C21.9681 19.8922 22.5827 20.1467 23.0359 20.5998L37.6567 35.2206C38.0969 35.6764 38.3405 36.2869 38.335 36.9205C38.3295 37.5541 38.0753 38.1603 37.6273 38.6083C37.1792 39.0564 36.5731 39.3106 35.9394 39.3161C35.3058 39.3216 34.6953 39.078 34.2395 38.6378L19.6187 24.0169C19.1656 23.5638 18.9111 22.9492 18.9111 22.3084C18.9111 21.6675 19.1656 21.053 19.6187 20.5998Z" fill="#FFCD29"/>
</svg>
