<svg width="42" height="42" viewBox="0 0 42 42" fill="none" xmlns="http://www.w3.org/2000/svg">
<path d="M17.9253 28.5495L10.5 21.1225L12.9745 18.648L17.9253 23.597L27.8233 13.6973L30.2995 16.1735L17.9253 28.5495Z" fill="white"/>
<path fill-rule="evenodd" clip-rule="evenodd" d="M1.75 21C1.75 10.3687 10.3687 1.75 21 1.75C31.6312 1.75 40.25 10.3687 40.25 21C40.25 31.6312 31.6312 40.25 21 40.25C10.3687 40.25 1.75 31.6312 1.75 21ZM21 36.75C18.9317 36.75 16.8836 36.3426 14.9727 35.5511C13.0619 34.7596 11.3256 33.5995 9.86307 32.1369C8.40054 30.6744 7.24041 28.9381 6.4489 27.0273C5.65739 25.1164 5.25 23.0683 5.25 21C5.25 18.9317 5.65739 16.8836 6.4489 14.9727C7.24041 13.0619 8.40054 11.3256 9.86307 9.86307C11.3256 8.40054 13.0619 7.24041 14.9727 6.4489C16.8836 5.65739 18.9317 5.25 21 5.25C25.1772 5.25 29.1832 6.90937 32.1369 9.86307C35.0906 12.8168 36.75 16.8228 36.75 21C36.75 25.1772 35.0906 29.1832 32.1369 32.1369C29.1832 35.0906 25.1772 36.75 21 36.75Z" fill="white"/>
</svg>
