<svg width="27" height="27" viewBox="0 0 27 27" fill="none" xmlns="http://www.w3.org/2000/svg">
<path d="M4.45149 22.2574C3.83941 22.2574 3.31561 22.0397 2.88011 21.6041C2.4446 21.1686 2.22648 20.6445 2.22574 20.0317V6.67716C2.22574 6.06508 2.44386 5.54129 2.88011 5.10579C3.31636 4.67028 3.84015 4.45216 4.45149 4.45142H22.2575C22.8696 4.45142 23.3937 4.66954 23.83 5.10579C24.2662 5.54203 24.484 6.06583 24.4832 6.67716V20.0317C24.4832 20.6437 24.2655 21.1679 23.83 21.6041C23.3945 22.0404 22.8703 22.2581 22.2575 22.2574H4.45149ZM13.3545 14.4673L4.45149 8.90291V20.0317H22.2575V8.90291L13.3545 14.4673ZM13.3545 12.2415L22.2575 6.67716H4.45149L13.3545 12.2415ZM4.45149 8.90291V6.67716V20.0317V8.90291Z" fill="#115153"/>
</svg>
