<svg width="75" height="75" viewBox="0 0 75 75" fill="none" xmlns="http://www.w3.org/2000/svg">
<mask id="mask0_540_4573" style="mask-type:luminance" maskUnits="userSpaceOnUse" x="5" y="6" width="65" height="63">
<path fill-rule="evenodd" clip-rule="evenodd" d="M20.4951 7.8125H21.8795C29.1701 8.89062 31.1466 13.0281 37.4998 13.0281C43.8529 13.0281 45.8295 8.89062 53.1217 7.8125H53.906C55.8553 7.8125 57.7856 8.19645 59.5865 8.94241C61.3874 9.68838 63.0238 10.7818 64.4021 12.1601C65.7805 13.5385 66.8739 15.1749 67.6199 16.9758C68.3658 18.7767 68.7498 20.7069 68.7498 22.6562V23.6344C68.7498 28.1703 63.9216 33.3484 62.4998 38.2547C60.992 43.4641 59.9591 47.7234 59.656 52.1781C58.9451 62.6172 55.3857 67.1875 51.5623 67.1875C45.8529 67.1875 40.7841 43.7891 37.5982 43.7891C34.4107 43.7891 28.0904 67.1875 23.4373 67.1875C20.5982 67.1875 16.9216 65.5078 15.5404 52.1781C14.9904 46.875 14.0623 43.6578 12.4998 38.2547C11.1248 33.5047 6.48727 27.8297 6.24977 22.7359C6.16018 20.8095 6.46226 18.8849 7.13773 17.0785C7.81321 15.2721 8.84804 13.6215 10.1797 12.2265C11.5113 10.8315 13.112 9.7211 14.885 8.96241C16.6581 8.20372 18.5666 7.81253 20.4951 7.8125Z" fill="white" stroke="white" stroke-width="2"/>
<path d="M24.1904 19.4736L50.0014 27.7955M24.1904 27.7955L50.0014 19.4736" stroke="black" stroke-width="2" stroke-linecap="round"/>
</mask>
<g mask="url(#mask0_540_4573)">
<path d="M0 0H75V75H0V0Z" fill="white"/>
</g>
</svg>
