<svg width="35" height="35" viewBox="0 0 35 35" fill="none" xmlns="http://www.w3.org/2000/svg">
<path d="M28.963 1.07355C28.2754 0.386157 27.3429 0 26.3707 0C25.3984 0 24.4659 0.386157 23.7783 1.07355L20.7625 4.09122L30.4847 13.8134L33.5005 10.7994C33.8411 10.4589 34.1114 10.0546 34.2957 9.60965C34.4801 9.16469 34.575 8.68777 34.575 8.20613C34.575 7.7245 34.4801 7.24758 34.2957 6.80262C34.1114 6.35766 33.8411 5.95338 33.5005 5.61288L28.963 1.07355ZM27.8923 16.4057L18.1702 6.68355L1.97267 22.8811L0 34.5777L11.6967 32.6032L27.8923 16.4057Z" fill="white"/>
</svg>
