<svg width="70" height="70" viewBox="0 0 70 70" fill="none" xmlns="http://www.w3.org/2000/svg">
<path d="M32.0835 5.83337C28.2158 5.83337 24.5064 7.36983 21.7715 10.1047C19.0366 12.8396 17.5002 16.549 17.5002 20.4167C17.5002 24.2844 19.0366 27.9938 21.7715 30.7287C24.5064 33.4636 28.2158 35 32.0835 35C35.9512 35 39.6606 33.4636 42.3955 30.7287C45.1304 27.9938 46.6668 24.2844 46.6668 20.4167C46.6668 16.549 45.1304 12.8396 42.3955 10.1047C39.6606 7.36983 35.9512 5.83337 32.0835 5.83337ZM32.0835 37.9167C33.8082 37.9206 35.4843 38.0373 37.1118 38.2667C37.6591 38.3432 38.1735 38.5736 38.5949 38.9311C39.0163 39.2885 39.3275 39.7584 39.4923 40.2859C39.657 40.8134 39.6685 41.3768 39.5254 41.9106C39.3822 42.4444 39.0904 42.9265 38.6839 43.3009C36.2835 45.4999 34.4453 48.2425 33.3238 51.2986C32.2022 54.3548 31.8299 57.6353 32.2381 60.865C32.2896 61.28 32.2513 61.7013 32.1257 62.1001C32.0001 62.499 31.7903 62.8662 31.5103 63.1769C31.2304 63.4875 30.8869 63.7344 30.5032 63.9006C30.1195 64.0669 29.7045 64.1487 29.2864 64.1405C23.4239 64.0238 17.9406 63.5105 13.8456 62.2563C11.7981 61.6292 9.86725 60.7484 8.40308 59.4505C6.85433 58.0796 5.8335 56.2334 5.8335 53.9584C5.8335 51.663 6.87766 49.5163 8.29516 47.7196C9.736 45.8967 11.7281 44.2196 14.0643 42.7905C18.7397 39.9438 25.0981 37.9167 32.0835 37.9167ZM61.8685 40.9325C63.2355 42.2999 64.0034 44.1543 64.0034 46.0877C64.0034 48.0212 63.2355 49.8756 61.8685 51.243L51.8993 61.2121C51.2303 61.8809 50.3625 62.3148 49.426 62.4488L42.6914 63.4113C42.2426 63.4758 41.7849 63.4348 41.3547 63.2915C40.9244 63.1482 40.5336 62.9066 40.2131 62.5858C39.8926 62.265 39.6513 61.8739 39.5084 61.4436C39.3654 61.0132 39.3248 60.5555 39.3897 60.1067L40.3522 53.375C40.4856 52.4375 40.9196 51.5686 41.5889 50.8988L51.5581 40.9296C52.9255 39.5626 54.7798 38.7947 56.7133 38.7947C58.6468 38.7947 60.5011 39.5626 61.8685 40.9296V40.9325Z" fill="#545454"/>
</svg>
