<svg width="27" height="27" viewBox="0 0 27 27" fill="none" xmlns="http://www.w3.org/2000/svg">
<path d="M2.25 5.92875L3.69 4.5L22.5 23.31L21.0712 24.75L17.6062 21.285C16.3125 21.7125 14.94 21.9375 13.5 21.9375C7.875 21.9375 3.07125 18.4387 1.125 13.5C1.90125 11.52 3.13875 9.77625 4.71375 8.3925L2.25 5.92875ZM13.5 10.125C14.3951 10.125 15.2536 10.4806 15.8865 11.1135C16.5194 11.7464 16.875 12.6049 16.875 13.5C16.8756 13.8831 16.8109 14.2636 16.6837 14.625L12.375 10.3163C12.7364 10.1891 13.1169 10.1244 13.5 10.125ZM13.5 5.0625C19.125 5.0625 23.9287 8.56125 25.875 13.5C24.9563 15.832 23.3961 17.8564 21.375 19.3388L19.7775 17.73C21.3333 16.6539 22.5881 15.1977 23.4225 13.5C22.5131 11.6436 21.1011 10.0796 19.347 8.98577C17.593 7.89196 15.5672 7.31223 13.5 7.3125C12.2737 7.3125 11.07 7.515 9.945 7.875L8.2125 6.15375C9.8325 5.45625 11.6213 5.0625 13.5 5.0625ZM3.5775 13.5C4.48689 15.3564 5.89889 16.9204 7.65296 18.0142C9.40704 19.108 11.4328 19.6878 13.5 19.6875C14.2762 19.6875 15.0413 19.6088 15.75 19.4513L13.185 16.875C12.4022 16.7911 11.6717 16.4417 11.115 15.885C10.5583 15.3283 10.2089 14.5978 10.125 13.815L6.3 9.97875C5.18625 10.935 4.2525 12.1275 3.5775 13.5Z" fill="#545454"/>
</svg>
