<svg width="25" height="25" viewBox="0 0 25 25" fill="none" xmlns="http://www.w3.org/2000/svg">
<path d="M12.4424 9.33178C13.2673 9.33178 14.0585 9.6595 14.6419 10.2428C15.2252 10.8262 15.5529 11.6174 15.5529 12.4424C15.5529 13.2673 15.2252 14.0585 14.6419 14.6419C14.0585 15.2252 13.2673 15.553 12.4424 15.553C11.6174 15.553 10.8262 15.2252 10.2428 14.6419C9.65949 14.0585 9.33177 13.2673 9.33177 12.4424C9.33177 11.6174 9.65949 10.8262 10.2428 10.2428C10.8262 9.6595 11.6174 9.33178 12.4424 9.33178ZM12.4424 4.66589C17.6267 4.66589 22.0541 7.89054 23.8479 12.4424C22.0541 16.9942 17.6267 20.2188 12.4424 20.2188C7.25804 20.2188 2.83064 16.9942 1.03687 12.4424C2.83064 7.89054 7.25804 4.66589 12.4424 4.66589ZM3.29723 12.4424C4.13528 14.1535 5.43659 15.5952 7.05324 16.6036C8.66989 17.6119 10.537 18.1465 12.4424 18.1465C14.3477 18.1465 16.2148 17.6119 17.8315 16.6036C19.4481 15.5952 20.7494 14.1535 21.5875 12.4424C20.7494 10.7312 19.4481 9.28953 17.8315 8.28117C16.2148 7.27282 14.3477 6.73825 12.4424 6.73825C10.537 6.73825 8.66989 7.27282 7.05324 8.28117C5.43659 9.28953 4.13528 10.7312 3.29723 12.4424Z" fill="#545454"/>
</svg>
