<svg width="81" height="81" viewBox="0 0 81 81" fill="none" xmlns="http://www.w3.org/2000/svg">
<path d="M68.8498 4.04999H12.1498C7.6948 4.04999 4.0498 7.69499 4.0498 12.15V68.85C4.0498 73.309 7.6948 76.95 12.1498 76.95H40.4998V48.6H32.3998V38.5762H40.4998V30.2737C40.4998 21.5095 45.4084 15.3535 55.7521 15.3535L63.0543 15.3616V25.9119H58.2064C54.1807 25.9119 52.6498 28.9332 52.6498 31.7358V38.5803H63.0502L60.7498 48.6H52.6498V76.95H68.8498C73.3048 76.95 76.9498 73.309 76.9498 68.85V12.15C76.9498 7.69499 73.3048 4.04999 68.8498 4.04999Z" fill="#0D99FF"/>
</svg>
