<svg width="65" height="75" viewBox="0 0 65 75" fill="none" xmlns="http://www.w3.org/2000/svg">
<path d="M45.4811 44.0888C41.3188 44.0888 39.3174 46.4093 32.4865 46.4093C25.6556 46.4093 23.6687 44.0888 19.4919 44.0888C8.73075 44.0888 0 52.8196 0 63.5807V67.2935C0 71.1368 3.11812 74.2549 6.9614 74.2549H58.0116C61.8549 74.2549 64.973 71.1368 64.973 67.2935V63.5807C64.973 52.8196 56.2423 44.0888 45.4811 44.0888ZM58.0116 67.2935H6.9614V63.5807C6.9614 56.6774 12.5885 51.0502 19.4919 51.0502C21.6093 51.0502 25.0465 53.3707 32.4865 53.3707C39.9845 53.3707 43.3492 51.0502 45.4811 51.0502C52.3845 51.0502 58.0116 56.6774 58.0116 63.5807V67.2935ZM32.4865 41.7684C44.0163 41.7684 53.3707 32.414 53.3707 20.8842C53.3707 9.35438 44.0163 0 32.4865 0C20.9567 0 11.6023 9.35438 11.6023 20.8842C11.6023 32.414 20.9567 41.7684 32.4865 41.7684ZM32.4865 6.9614C40.1585 6.9614 46.4093 13.2121 46.4093 20.8842C46.4093 28.5562 40.1585 34.807 32.4865 34.807C24.8145 34.807 18.5637 28.5562 18.5637 20.8842C18.5637 13.2121 24.8145 6.9614 32.4865 6.9614Z" fill="#545454"/>
</svg>
