<svg width="50" height="50" viewBox="0 0 50 50" fill="none" xmlns="http://www.w3.org/2000/svg">
<path d="M25 3.125C12.9199 3.125 3.125 12.9199 3.125 25C3.125 37.0801 12.9199 46.875 25 46.875C37.0801 46.875 46.875 37.0801 46.875 25C46.875 12.9199 37.0801 3.125 25 3.125ZM26.0889 35.6055L26.0986 37.1533C26.0986 37.3682 25.9229 37.5488 25.708 37.5488H24.3213C24.1064 37.5488 23.9307 37.373 23.9307 37.1582V35.625C19.5947 35.3027 17.5537 32.832 17.334 30.1465C17.3145 29.917 17.4951 29.7217 17.7246 29.7217H19.9805C20.1709 29.7217 20.3369 29.8584 20.3662 30.0439C20.6152 31.5918 21.8213 32.749 23.9844 33.0371V26.0693L22.7783 25.7617C20.2246 25.1514 17.793 23.5596 17.793 20.2588C17.793 16.6992 20.498 14.7852 23.9551 14.4482V12.8369C23.9551 12.6221 24.1309 12.4463 24.3457 12.4463H25.7178C25.9326 12.4463 26.1084 12.6221 26.1084 12.8369V14.4336C29.4531 14.7705 31.9629 16.7236 32.2559 19.7656C32.2803 19.9951 32.0996 20.1953 31.8652 20.1953H29.6729C29.4775 20.1953 29.3115 20.0488 29.2871 19.8584C29.0918 18.4326 27.9492 17.2705 26.0889 17.0166V23.5742L27.3291 23.8623C30.4932 24.6436 32.6465 26.1572 32.6465 29.5459C32.6465 33.2227 29.9121 35.2734 26.0889 35.6055ZM20.8301 20.0342C20.8301 21.2744 21.5967 22.2363 23.2471 22.832C23.4766 22.9248 23.7061 22.998 23.9795 23.0762V17.0215C22.1777 17.251 20.8301 18.2617 20.8301 20.0342ZM26.5186 26.6357C26.3818 26.6064 26.2451 26.5723 26.0889 26.5283V33.0566C28.1689 32.8711 29.6045 31.7285 29.6045 29.8145C29.6045 28.3154 28.8281 27.3389 26.5186 26.6357Z" fill="#545454"/>
</svg>
