<svg width="70" height="70" viewBox="0 0 70 70" fill="none" xmlns="http://www.w3.org/2000/svg">
<path d="M11.6667 17.5C11.6667 16.7265 11.974 15.9846 12.521 15.4376C13.068 14.8907 13.8099 14.5834 14.5834 14.5834H55.4167C56.1903 14.5834 56.9322 14.8907 57.4791 15.4376C58.0261 15.9846 58.3334 16.7265 58.3334 17.5V29.1667H11.6667V17.5Z" stroke="#102372" stroke-width="2" stroke-linejoin="round"/>
<path d="M23.3335 18.9584V10.2084M46.6668 18.9584V10.2084" stroke="#102372" stroke-width="2" stroke-linecap="round"/>
<path d="M11.6667 29.1667H58.3334V55.4167C58.3334 56.1903 58.0261 56.9322 57.4791 57.4791C56.9322 58.0261 56.1903 58.3334 55.4167 58.3334H14.5834C13.8099 58.3334 13.068 58.0261 12.521 57.4791C11.974 56.9322 11.6667 56.1903 11.6667 55.4167V29.1667Z" stroke="#102372" stroke-width="2" stroke-linejoin="round"/>
</svg>
