<svg width="32" height="63" viewBox="0 0 32 63" fill="none" xmlns="http://www.w3.org/2000/svg">
<path fill-rule="evenodd" clip-rule="evenodd" d="M7.33813 15.05C5.07713 16.744 3.83813 18.9525 3.83813 21.245C3.83813 23.541 5.07713 25.7495 7.33813 27.447C9.59913 29.1445 12.8051 30.247 16.4206 30.247C16.8848 30.247 17.3299 30.4314 17.6581 30.7596C17.9863 31.0878 18.1706 31.5329 18.1706 31.997C18.1706 32.4611 17.9863 32.9062 17.6581 33.2344C17.3299 33.5626 16.8848 33.747 16.4206 33.747C12.1226 33.747 8.16063 32.4415 5.23814 30.247C2.31213 28.0525 0.338135 24.892 0.338135 21.2485C0.338135 17.6085 2.31213 14.441 5.23814 12.2465C8.16413 10.0555 12.1226 8.75 16.4206 8.75C23.1336 8.75 29.1851 11.9665 31.5196 16.919C31.7174 17.339 31.7401 17.8204 31.5829 18.2572C31.4257 18.6941 31.1014 19.0505 30.6814 19.2483C30.2613 19.446 29.78 19.4687 29.3432 19.3115C28.9063 19.1543 28.5499 18.83 28.3521 18.41C26.7526 15.015 22.1886 12.25 16.4206 12.25C12.8051 12.25 9.59913 13.3525 7.33813 15.05Z" fill="#115153"/>
<path fill-rule="evenodd" clip-rule="evenodd" d="M24.3482 48.9405C26.6092 47.2465 27.8447 45.0345 27.8447 42.7455C27.8447 40.4495 26.6092 38.241 24.3447 36.5435C22.0837 34.846 18.8777 33.7435 15.2657 33.7435C14.8016 33.7435 14.3564 33.5591 14.0283 33.2309C13.7001 32.9027 13.5157 32.4576 13.5157 31.9935C13.5157 31.5294 13.7001 31.0843 14.0283 30.7561C14.3564 30.4279 14.8016 30.2435 15.2657 30.2435C19.5637 30.2435 23.5257 31.549 26.4482 33.7435C29.3707 35.938 31.3447 39.0985 31.3447 42.742C31.3447 46.382 29.3707 49.5495 26.4447 51.7405C23.5222 53.935 19.5637 55.2405 15.2657 55.2405C8.55269 55.2405 2.50119 52.024 0.166688 47.0715C-0.0310304 46.6515 -0.0537914 46.1701 0.103411 45.7333C0.260613 45.2964 0.584902 44.94 1.00494 44.7422C1.42498 44.5445 1.90635 44.5218 2.34317 44.679C2.77999 44.8362 3.13647 45.1605 3.33419 45.5805C4.93369 48.9755 9.49419 51.7405 15.2657 51.7405C18.8777 51.7405 22.0837 50.638 24.3482 48.9405ZM13.9987 0C14.4628 0 14.9079 0.184374 15.2361 0.512563C15.5643 0.840752 15.7487 1.28587 15.7487 1.75V8.75C15.7487 9.21413 15.5643 9.65925 15.2361 9.98744C14.9079 10.3156 14.4628 10.5 13.9987 10.5C13.5346 10.5 13.0894 10.3156 12.7613 9.98744C12.4331 9.65925 12.2487 9.21413 12.2487 8.75V1.75C12.2487 1.28587 12.4331 0.840752 12.7613 0.512563C13.0894 0.184374 13.5346 0 13.9987 0Z" fill="#115153"/>
<path fill-rule="evenodd" clip-rule="evenodd" d="M13.9988 52.5C14.4629 52.5 14.908 52.6844 15.2362 53.0126C15.5644 53.3408 15.7488 53.7859 15.7488 54.25V61.25C15.7488 61.7141 15.5644 62.1592 15.2362 62.4874C14.908 62.8156 14.4629 63 13.9988 63C13.5347 63 13.0895 62.8156 12.7613 62.4874C12.4332 62.1592 12.2488 61.7141 12.2488 61.25V54.25C12.2488 53.7859 12.4332 53.3408 12.7613 53.0126C13.0895 52.6844 13.5347 52.5 13.9988 52.5Z" fill="#115153"/>
</svg>
