<svg width="50" height="50" viewBox="0 0 50 50" fill="none" xmlns="http://www.w3.org/2000/svg">
<path d="M10.4167 39.5833V21.4749C10.4167 20.9416 10.5362 20.4367 10.7751 19.9603C11.014 19.4839 11.3431 19.0916 11.7626 18.7833L22.9813 10.2874C23.5688 9.83881 24.2397 9.6145 24.9938 9.6145C25.748 9.6145 26.423 9.83881 27.0188 10.2874L38.2376 18.7812C38.6584 19.0895 38.9876 19.4826 39.2251 19.9603C39.464 20.4367 39.5834 20.9416 39.5834 21.4749V39.5833C39.5834 40.1416 39.3758 40.6284 38.9605 41.0437C38.5452 41.4589 38.0584 41.6666 37.5001 41.6666H30.4501C29.9723 41.6666 29.5723 41.5055 29.2501 41.1833C28.9279 40.8596 28.7667 40.4596 28.7667 39.9832V30.0478C28.7667 29.5714 28.6056 29.1721 28.2834 28.8499C27.9598 28.5263 27.5598 28.3645 27.0834 28.3645H22.9167C22.4404 28.3645 22.0411 28.5263 21.7188 28.8499C21.3952 29.1721 21.2334 29.5714 21.2334 30.0478V39.9853C21.2334 40.4617 21.0723 40.861 20.7501 41.1833C20.4279 41.5055 20.0286 41.6666 19.5522 41.6666H12.5001C11.9417 41.6666 11.4549 41.4589 11.0397 41.0437C10.6244 40.6284 10.4167 40.1416 10.4167 39.5833Z" fill="#545454"/>
</svg>
