<svg width="34" height="34" viewBox="0 0 34 34" fill="none" xmlns="http://www.w3.org/2000/svg">
<path d="M23.5104 17.3338C26.1921 17.3338 28.4993 14.9392 28.4993 11.8209C28.4993 8.74026 26.18 6.45801 23.5104 6.45801C20.8414 6.45801 18.5215 8.79004 18.5215 11.8458C18.5215 14.9392 20.8286 17.3338 23.5104 17.3338ZM9.1545 17.6209C11.4744 17.6209 13.4956 15.5251 13.4956 12.8184C13.4956 10.1373 11.4616 8.15376 9.1545 8.15376C6.83521 8.15376 4.78914 10.1871 4.80189 12.8439C4.80189 15.5251 6.82246 17.6209 9.15511 17.6209M2.19543 28.8834H11.6741C10.3773 27.0001 11.9613 23.2085 14.6431 21.1381C13.2588 20.2153 11.4744 19.5292 9.14236 19.5292C3.51718 19.5286 0 23.6814 0 27.1367C0 28.2599 0.623536 28.8834 2.19543 28.8834ZM15.6655 28.8834H31.3431C33.3012 28.8834 34 28.3218 34 27.2241C34 24.0063 29.971 19.5662 23.4982 19.5662C17.0376 19.5662 13.0086 24.0063 13.0086 27.2247C13.0086 28.3218 13.7069 28.8834 15.6655 28.8834Z" fill="white"/>
</svg>
