<svg width="30" height="34" viewBox="0 0 30 34" fill="none" xmlns="http://www.w3.org/2000/svg">
<path d="M15 17C17.2733 17 19.4535 16.1045 21.0609 14.5104C22.6684 12.9163 23.5714 10.7543 23.5714 8.5C23.5714 6.24566 22.6684 4.08365 21.0609 2.48959C19.4535 0.895533 17.2733 0 15 0C12.7267 0 10.5465 0.895533 8.93908 2.48959C7.33163 4.08365 6.42857 6.24566 6.42857 8.5C6.42857 10.7543 7.33163 12.9163 8.93908 14.5104C10.5465 16.1045 12.7267 17 15 17ZM8.57143 20.6656C3.61607 22.1066 0 26.6488 0 32.0277C0 33.1168 0.890625 34 1.98884 34H28.0112C29.1094 34 30 33.1168 30 32.0277C30 26.6488 26.3839 22.1066 21.4286 20.6656V24.0391C23.2768 24.5105 24.6429 26.1773 24.6429 28.1562V30.8125C24.6429 31.3969 24.1607 31.875 23.5714 31.875H22.5C21.9107 31.875 21.4286 31.3969 21.4286 30.8125C21.4286 30.2281 21.9107 29.75 22.5 29.75V28.1562C22.5 26.9809 21.5424 26.0312 20.3571 26.0312C19.1719 26.0312 18.2143 26.9809 18.2143 28.1562V29.75C18.8036 29.75 19.2857 30.2281 19.2857 30.8125C19.2857 31.3969 18.8036 31.875 18.2143 31.875H17.1429C16.5536 31.875 16.0714 31.3969 16.0714 30.8125V28.1562C16.0714 26.1773 17.4375 24.5105 19.2857 24.0391V20.2473C18.8839 20.2074 18.4754 20.1875 18.0603 20.1875H11.9397C11.5246 20.1875 11.1161 20.2074 10.7143 20.2473V24.5902C12.2612 25.0484 13.3929 26.4695 13.3929 28.1562C13.3929 30.2082 11.7121 31.875 9.64286 31.875C7.57366 31.875 5.89286 30.2082 5.89286 28.1562C5.89286 26.4695 7.02455 25.0484 8.57143 24.5902V20.6656ZM9.64286 29.75C10.0691 29.75 10.4779 29.5821 10.7793 29.2832C11.0807 28.9843 11.25 28.5789 11.25 28.1562C11.25 27.7336 11.0807 27.3282 10.7793 27.0293C10.4779 26.7304 10.0691 26.5625 9.64286 26.5625C9.21662 26.5625 8.80783 26.7304 8.50644 27.0293C8.20504 27.3282 8.03571 27.7336 8.03571 28.1562C8.03571 28.5789 8.20504 28.9843 8.50644 29.2832C8.80783 29.5821 9.21662 29.75 9.64286 29.75Z" fill="white"/>
</svg>
