<svg width="60" height="60" viewBox="0 0 60 60" fill="none" xmlns="http://www.w3.org/2000/svg">
<path d="M42.5 8.34973C46.2707 10.5269 49.4073 13.651 51.5995 17.413C53.7917 21.1749 54.9634 25.4442 54.9986 29.7981C55.0337 34.152 53.9312 38.4396 51.8 42.2365C49.6689 46.0333 46.5831 49.2078 42.8481 51.4455C39.1131 53.6833 34.8584 54.9068 30.5052 54.9949C26.1521 55.083 21.8514 54.0327 18.0289 51.9478C14.2064 49.863 10.9947 46.816 8.71167 43.1085C6.42866 39.401 5.15352 35.1615 5.0125 30.8097L5 29.9997L5.0125 29.1897C5.15251 24.8722 6.40887 20.6646 8.6591 16.9772C10.9093 13.2898 14.0766 10.2484 17.8522 8.14944C21.6278 6.05051 25.8829 4.96572 30.2025 5.00083C34.5222 5.03593 38.759 6.18973 42.5 8.34973ZM30 14.9997C29.3877 14.9998 28.7967 15.2246 28.3391 15.6315C27.8815 16.0384 27.5891 16.5991 27.5175 17.2072L27.5 17.4997V29.9997L27.5225 30.3272C27.5795 30.761 27.7493 31.1722 28.015 31.5197L28.2325 31.7697L35.7325 39.2697L35.9675 39.4747C36.4059 39.8149 36.9451 39.9995 37.5 39.9995C38.0549 39.9995 38.5941 39.8149 39.0325 39.4747L39.2675 39.2672L39.475 39.0322C39.8152 38.5938 39.9998 38.0547 39.9998 37.4997C39.9998 36.9448 39.8152 36.4057 39.475 35.9672L39.2675 35.7322L32.5 28.9622V17.4997L32.4825 17.2072C32.4109 16.5991 32.1185 16.0384 31.6609 15.6315C31.2033 15.2246 30.6123 14.9998 30 14.9997Z" fill="#FFCD29"/>
</svg>
