<svg width="78" height="78" viewBox="0 0 78 78" fill="none" xmlns="http://www.w3.org/2000/svg">
<path d="M59.7188 0H18.2812C8.18479 0 0 8.18479 0 18.2812V59.7188C0 69.8152 8.18479 78 18.2812 78H59.7188C69.8152 78 78 69.8152 78 59.7188V18.2812C78 8.18479 69.8152 0 59.7188 0Z" fill="url(#paint0_radial_471_266)"/>
<path d="M59.7188 0H18.2812C8.18479 0 0 8.18479 0 18.2812V59.7188C0 69.8152 8.18479 78 18.2812 78H59.7188C69.8152 78 78 69.8152 78 59.7188V18.2812C78 8.18479 69.8152 0 59.7188 0Z" fill="url(#paint1_radial_471_266)"/>
<path d="M39.0027 8.53125C30.728 8.53125 29.6894 8.56751 26.4396 8.71528C23.1959 8.86397 20.9817 9.37737 19.0445 10.1309C17.0403 10.909 15.3404 11.9501 13.647 13.6442C11.952 15.338 10.9109 17.0378 10.1303 19.0411C9.37463 20.979 8.86062 23.194 8.71467 26.4362C8.56934 29.6863 8.53125 30.7253 8.53125 39.0003C8.53125 47.2753 8.56781 48.3106 8.71528 51.5604C8.86458 54.8041 9.37798 57.0183 10.1309 58.9555C10.9096 60.9597 11.9508 62.6596 13.6448 64.3531C15.338 66.048 17.0378 67.0916 19.0405 67.8698C20.9793 68.6232 23.1937 69.1366 26.4368 69.2853C29.6869 69.4331 30.7247 69.4694 38.9991 69.4694C47.2747 69.4694 48.31 69.4331 51.5598 69.2853C54.8035 69.1366 57.0201 68.6232 58.9589 67.8698C60.9622 67.0916 62.6596 66.048 64.3524 64.3531C66.0474 62.6596 67.0882 60.9597 67.8691 58.9564C68.6181 57.0183 69.1324 54.8035 69.2847 51.561C69.4307 48.3112 69.4688 47.2753 69.4688 39.0003C69.4688 30.7253 69.4307 29.6869 69.2847 26.4368C69.1324 23.1931 68.6181 20.9793 67.8691 19.0421C67.0882 17.0378 66.0474 15.338 64.3524 13.6442C62.6578 11.9495 60.9628 10.9084 58.957 10.1312C57.0146 9.37737 54.7993 8.86366 51.5556 8.71528C48.3055 8.56751 47.2707 8.53125 38.9933 8.53125H39.0027ZM36.2694 14.022C37.0808 14.0208 37.986 14.022 39.0027 14.022C47.1382 14.022 48.1022 14.0513 51.3149 14.1972C54.2856 14.3331 55.898 14.8294 56.972 15.2466C58.394 15.7987 59.4077 16.4589 60.4735 17.5256C61.5399 18.592 62.1998 19.6076 62.7534 21.0295C63.1706 22.102 63.6675 23.7144 63.8028 26.6851C63.9487 29.8972 63.9804 30.8618 63.9804 38.9933C63.9804 47.1248 63.9487 48.0897 63.8028 51.3015C63.6669 54.2722 63.1706 55.8846 62.7534 56.9574C62.2013 58.3793 61.5399 59.3918 60.4735 60.4576C59.4071 61.524 58.3946 62.184 56.972 62.7364C55.8992 63.1553 54.2856 63.6504 51.3149 63.7863C48.1028 63.9323 47.1382 63.964 39.0027 63.964C30.867 63.964 29.9026 63.9323 26.6909 63.7863C23.7202 63.6492 22.1078 63.1529 21.0329 62.7358C19.6112 62.1834 18.5954 61.5234 17.529 60.457C16.4626 59.3906 15.8026 58.3775 15.249 56.9549C14.8319 55.8821 14.3349 54.2697 14.1997 51.299C14.0537 48.087 14.0245 47.1224 14.0245 38.9857C14.0245 30.849 14.0537 29.8895 14.1997 26.6775C14.3355 23.7068 14.8319 22.0944 15.249 21.0204C15.8014 19.5984 16.4626 18.5829 17.5293 17.5165C18.596 16.4501 19.6112 15.7898 21.0332 15.2365C22.1072 14.8176 23.7202 14.3224 26.6909 14.1859C29.5017 14.0589 30.5909 14.0208 36.2694 14.0144V14.022ZM55.267 19.0811C53.2484 19.0811 51.6107 20.7172 51.6107 22.7361C51.6107 24.7546 53.2484 26.3923 55.267 26.3923C57.2855 26.3923 58.9232 24.7546 58.9232 22.7361C58.9232 20.7175 57.2855 19.0798 55.267 19.0798V19.0811ZM39.0027 23.3531C30.3618 23.3531 23.3558 30.3591 23.3558 39.0003C23.3558 47.6415 30.3618 54.6442 39.0027 54.6442C47.644 54.6442 54.6475 47.6415 54.6475 39.0003C54.6475 30.3594 47.6434 23.3531 39.0021 23.3531H39.0027ZM39.0027 28.8439C44.6117 28.8439 49.1592 33.3907 49.1592 39.0003C49.1592 44.6093 44.6117 49.1568 39.0027 49.1568C33.3938 49.1568 28.8466 44.6093 28.8466 39.0003C28.8466 33.3907 33.3934 28.8439 39.0027 28.8439Z" fill="white"/>
<defs>
<radialGradient id="paint0_radial_471_266" cx="0" cy="0" r="1" gradientUnits="userSpaceOnUse" gradientTransform="translate(20.7187 84.0075) rotate(-90) scale(77.3038 71.8986)">
<stop stop-color="#FFDD55"/>
<stop offset="0.1" stop-color="#FFDD55"/>
<stop offset="0.5" stop-color="#FF543E"/>
<stop offset="1" stop-color="#C837AB"/>
</radialGradient>
<radialGradient id="paint1_radial_471_266" cx="0" cy="0" r="1" gradientUnits="userSpaceOnUse" gradientTransform="translate(-13.0653 5.61874) rotate(78.681) scale(34.5552 142.438)">
<stop stop-color="#3771C8"/>
<stop offset="0.128" stop-color="#3771C8"/>
<stop offset="1" stop-color="#6600FF" stop-opacity="0"/>
</radialGradient>
</defs>
</svg>
