<svg width="50" height="50" viewBox="0 0 50 50" fill="none" xmlns="http://www.w3.org/2000/svg">
<path d="M31.9443 5.55566H9.72211C8.9854 5.55566 8.27886 5.84832 7.75793 6.36926C7.23699 6.89019 6.94434 7.59673 6.94434 8.33344V41.6668C6.94434 42.4035 7.23699 43.11 7.75793 43.631C8.27886 44.1519 8.9854 44.4446 9.72211 44.4446H31.9443C32.681 44.4446 33.3876 44.1519 33.9085 43.631C34.4295 43.11 34.7221 42.4035 34.7221 41.6668V33.3334H21.7082C21.3399 33.3334 20.9866 33.1871 20.7261 32.9266C20.4657 32.6662 20.3193 32.3129 20.3193 31.9446C20.3193 31.5762 20.4657 31.2229 20.7261 30.9625C20.9866 30.702 21.3399 30.5557 21.7082 30.5557H34.7221V8.33344C34.7221 7.59673 34.4295 6.89019 33.9085 6.36926C33.3876 5.84832 32.681 5.55566 31.9443 5.55566Z" fill="white"/>
<path d="M39.1111 24C38.8454 23.7724 38.5036 23.6535 38.154 23.6671C37.8045 23.6806 37.4729 23.8255 37.2256 24.0728C36.9782 24.3202 36.8333 24.6517 36.8198 25.0013C36.8063 25.3508 36.9252 25.6926 37.1527 25.9583L41.8472 30.5555H34.7222V33.3333H41.8472L37.1527 38.1389C37.0073 38.2634 36.8892 38.4166 36.8059 38.5889C36.7225 38.7612 36.6757 38.9489 36.6683 39.1402C36.6609 39.3315 36.6931 39.5222 36.7629 39.7004C36.8328 39.8787 36.9387 40.0405 37.074 40.1759C37.2094 40.3112 37.3713 40.4172 37.5495 40.487C37.7277 40.5568 37.9185 40.589 38.1097 40.5816C38.301 40.5743 38.4887 40.5274 38.661 40.444C38.8333 40.3607 38.9865 40.2426 39.1111 40.0972L47.2222 32.0417L39.1111 24Z" fill="white"/>
</svg>
