<svg width="36" height="36" viewBox="0 0 36 36" fill="none" xmlns="http://www.w3.org/2000/svg">
<path d="M5.94848 29.7436C5.13053 29.7436 4.43057 29.4526 3.84858 28.8706C3.2666 28.2886 2.97511 27.5882 2.97412 26.7692V8.92309C2.97412 8.10514 3.26561 7.40517 3.84858 6.82319C4.43156 6.24121 5.13152 5.94972 5.94848 5.94873H29.7433C30.5613 5.94873 31.2618 6.24022 31.8447 6.82319C32.4277 7.40616 32.7187 8.10613 32.7177 8.92309V26.7692C32.7177 27.5872 32.4267 28.2876 31.8447 28.8706C31.2628 29.4536 30.5623 29.7446 29.7433 29.7436H5.94848ZM17.8459 19.0731C17.9698 19.0731 18.1002 19.0542 18.237 19.0166C18.3739 18.9789 18.5037 18.9234 18.6267 18.85L29.1485 12.2692C29.3468 12.1453 29.4955 11.9906 29.5946 11.8052C29.6938 11.6198 29.7433 11.4151 29.7433 11.191C29.7433 10.6953 29.5327 10.3235 29.1113 10.0757C28.6899 9.82779 28.2562 9.84018 27.81 10.1128L17.8459 16.359L7.88181 10.1128C7.43566 9.84018 7.0019 9.83423 6.58053 10.095C6.15916 10.3557 5.94848 10.7211 5.94848 11.191C5.94848 11.4389 5.99805 11.656 6.0972 11.8424C6.19634 12.0288 6.34506 12.1711 6.54335 12.2692L17.0651 18.85C17.1891 18.9244 17.3195 18.9804 17.4563 19.0181C17.5931 19.0557 17.723 19.0741 17.8459 19.0731Z" fill="#545454"/>
</svg>
