<svg width="56" height="56" viewBox="0 0 56 56" fill="none" xmlns="http://www.w3.org/2000/svg">
<path d="M15.75 43.75H40.25C48.9344 43.75 56 36.6844 56 28C56 19.3156 48.9344 12.25 40.25 12.25H15.75C7.06562 12.25 0 19.3156 0 28C0 36.6844 7.06562 43.75 15.75 43.75ZM15.75 15.75C18.1728 15.75 20.5412 16.4684 22.5557 17.8145C24.5702 19.1605 26.1404 21.0737 27.0675 23.3121C27.9947 25.5505 28.2373 28.0136 27.7646 30.3899C27.292 32.7661 26.1253 34.9489 24.4121 36.6621C22.6989 38.3753 20.5161 39.542 18.1399 40.0146C15.7636 40.4873 13.3005 40.2447 11.0621 39.3175C8.82373 38.3904 6.91054 36.8202 5.5645 34.8057C4.21845 32.7912 3.5 30.4228 3.5 28C3.50347 24.7522 4.79521 21.6383 7.09178 19.3418C9.38835 17.0452 12.5022 15.7535 15.75 15.75Z" fill="#545454"/>
</svg>
