<svg width="50" height="50" viewBox="0 0 50 50" fill="none" xmlns="http://www.w3.org/2000/svg">
<path d="M32.4844 6.30664C30.584 4.25488 27.9297 3.125 25 3.125C22.0547 3.125 19.3916 4.24805 17.5 6.28711C15.5879 8.34863 14.6563 11.1504 14.875 14.1758C15.3086 20.1445 19.8506 25 25 25C30.1494 25 34.6836 20.1455 35.124 14.1777C35.3457 11.1797 34.4082 8.38379 32.4844 6.30664ZM42.1875 46.875H7.81251C7.36257 46.8809 6.91699 46.7863 6.50818 46.5983C6.09937 46.4103 5.73761 46.1335 5.44923 45.7881C4.81446 45.0293 4.5586 43.9932 4.74806 42.9453C5.57227 38.373 8.14454 34.5322 12.1875 31.8359C15.7793 29.4424 20.3291 28.125 25 28.125C29.6709 28.125 34.2207 29.4434 37.8125 31.8359C41.8555 34.5313 44.4277 38.3721 45.252 42.9443C45.4414 43.9922 45.1856 45.0283 44.5508 45.7871C44.2625 46.1327 43.9008 46.4097 43.492 46.5979C43.0832 46.7861 42.6375 46.8807 42.1875 46.875Z" fill="#545454"/>
</svg>
