<svg width="100" height="100" viewBox="0 0 100 100" fill="none" xmlns="http://www.w3.org/2000/svg">
<path d="M75 0H25C21.6848 0 18.5054 1.31696 16.1612 3.66117C13.817 6.00537 12.5 9.18479 12.5 12.5V87.5C12.5 90.8152 13.817 93.9946 16.1612 96.3388C18.5054 98.683 21.6848 100 25 100H75C78.3152 100 81.4946 98.683 83.8388 96.3388C86.183 93.9946 87.5 90.8152 87.5 87.5V12.5C87.5 9.18479 86.183 6.00537 83.8388 3.66117C81.4946 1.31696 78.3152 0 75 0ZM68.75 43.75C68.75 48.7228 66.7746 53.4919 63.2583 57.0083C59.7419 60.5246 54.9728 62.5 50 62.5C45.0272 62.5 40.2581 60.5246 36.7417 57.0083C33.2254 53.4919 31.25 48.7228 31.25 43.75C31.25 38.7772 33.2254 34.0081 36.7417 30.4917C40.2581 26.9754 45.0272 25 50 25C54.9728 25 59.7419 26.9754 63.2583 30.4917C66.7746 34.0081 68.75 38.7772 68.75 43.75ZM50 68.75C66.3937 68.75 75.9125 73.9125 81.25 79.7188V87.5C81.25 89.1576 80.5915 90.7473 79.4194 91.9194C78.2473 93.0915 76.6576 93.75 75 93.75H25C23.3424 93.75 21.7527 93.0915 20.5806 91.9194C19.4085 90.7473 18.75 89.1576 18.75 87.5V79.7188C24.0875 73.9063 33.6063 68.75 50 68.75Z" fill="#115153"/>
</svg>
