<svg width="50" height="50" viewBox="0 0 50 50" fill="none" xmlns="http://www.w3.org/2000/svg">
<path fill-rule="evenodd" clip-rule="evenodd" d="M16.6666 8.33357C14.4565 8.33357 12.3369 9.21154 10.7741 10.7743C9.21127 12.3371 8.33329 14.4568 8.33329 16.6669C8.33329 18.877 9.21127 20.9967 10.7741 22.5595C12.3369 24.1223 14.4565 25.0002 16.6666 25.0002C18.8768 25.0002 20.9964 24.1223 22.5592 22.5595C24.122 20.9967 25 18.877 25 16.6669C25 14.4568 24.122 12.3371 22.5592 10.7743C20.9964 9.21154 18.8768 8.33357 16.6666 8.33357ZM12.5 27.0836C10.2898 27.0836 8.17021 27.9615 6.6074 29.5243C5.0446 31.0871 4.16663 33.2068 4.16663 35.4169V37.5002C4.16663 38.6053 4.60561 39.6651 5.38701 40.4465C6.16842 41.2279 7.22822 41.6669 8.33329 41.6669H25C26.105 41.6669 27.1648 41.2279 27.9462 40.4465C28.7276 39.6651 29.1666 38.6053 29.1666 37.5002V35.4169C29.1666 33.2068 28.2887 31.0871 26.7258 29.5243C25.163 27.9615 23.0434 27.0836 20.8333 27.0836H12.5ZM27.6041 22.719C28.6 20.9273 29.1666 18.8648 29.1666 16.6669C29.1671 14.5491 28.6294 12.4658 27.6041 10.6127C28.7871 9.49342 30.2721 8.74526 31.8756 8.46071C33.4791 8.17616 35.1309 8.3677 36.6267 9.01166C38.1226 9.65561 39.3969 10.7238 40.2923 12.0841C41.1878 13.4444 41.6649 15.0373 41.6649 16.6659C41.6649 18.2944 41.1878 19.8873 40.2923 21.2476C39.3969 22.608 38.1226 23.6761 36.6267 24.3201C35.1309 24.964 33.4791 25.1556 31.8756 24.871C30.2721 24.5865 28.7871 23.8383 27.6041 22.719ZM32.2208 41.6669C32.9291 40.4419 33.3354 39.019 33.3354 37.5002V35.4169C33.3392 32.3414 32.2054 29.3732 30.152 27.0836H37.5C39.7101 27.0836 41.8297 27.9615 43.3925 29.5243C44.9553 31.0871 45.8333 33.2068 45.8333 35.4169V37.5002C45.8333 38.6053 45.3943 39.6651 44.6129 40.4465C43.8315 41.2279 42.7717 41.6669 41.6666 41.6669H32.2208Z" fill="#545454"/>
</svg>
