<svg width="50" height="50" viewBox="0 0 50 50" fill="none" xmlns="http://www.w3.org/2000/svg">
<path fill-rule="evenodd" clip-rule="evenodd" d="M29.6875 5.20833C29.6875 5.0702 29.6326 4.93772 29.5349 4.84005C29.4373 4.74237 29.3048 4.6875 29.1667 4.6875H14.5833C13.0639 4.6875 11.6066 5.29111 10.5322 6.36553C9.45776 7.43996 8.85416 8.8972 8.85416 10.4167V39.5833C8.85416 41.1028 9.45776 42.56 10.5322 43.6345C11.6066 44.7089 13.0639 45.3125 14.5833 45.3125H35.4167C36.9361 45.3125 38.3934 44.7089 39.4678 43.6345C40.5422 42.56 41.1458 41.1028 41.1458 39.5833V19.0563C41.1458 18.9181 41.091 18.7856 40.9933 18.688C40.8956 18.5903 40.7631 18.5354 40.625 18.5354H31.25C30.8356 18.5354 30.4382 18.3708 30.1451 18.0778C29.8521 17.7847 29.6875 17.3873 29.6875 16.9729V5.20833ZM31.25 25.5208C31.6644 25.5208 32.0618 25.6855 32.3548 25.9785C32.6479 26.2715 32.8125 26.6689 32.8125 27.0833C32.8125 27.4977 32.6479 27.8952 32.3548 28.1882C32.0618 28.4812 31.6644 28.6458 31.25 28.6458H18.75C18.3356 28.6458 17.9382 28.4812 17.6451 28.1882C17.3521 27.8952 17.1875 27.4977 17.1875 27.0833C17.1875 26.6689 17.3521 26.2715 17.6451 25.9785C17.9382 25.6855 18.3356 25.5208 18.75 25.5208H31.25ZM31.25 33.8542C31.6644 33.8542 32.0618 34.0188 32.3548 34.3118C32.6479 34.6048 32.8125 35.0023 32.8125 35.4167C32.8125 35.8311 32.6479 36.2285 32.3548 36.5215C32.0618 36.8145 31.6644 36.9792 31.25 36.9792H18.75C18.3356 36.9792 17.9382 36.8145 17.6451 36.5215C17.3521 36.2285 17.1875 35.8311 17.1875 35.4167C17.1875 35.0023 17.3521 34.6048 17.6451 34.3118C17.9382 34.0188 18.3356 33.8542 18.75 33.8542H31.25Z" fill="#545454"/>
<path d="M32.8125 5.88328C32.8125 5.49995 33.2146 5.2562 33.5125 5.49578C33.7653 5.69995 33.9896 5.93745 34.1854 6.20828L40.4625 14.952C40.6042 15.152 40.45 15.4104 40.2042 15.4104H33.3333C33.1952 15.4104 33.0627 15.3555 32.965 15.2578C32.8674 15.1601 32.8125 15.0277 32.8125 14.8895V5.88328Z" fill="#545454"/>
</svg>
