<svg width="44" height="44" viewBox="0 0 44 44" fill="none" xmlns="http://www.w3.org/2000/svg">
<path d="M22 3.66663C11.9166 3.66663 3.66663 11.9166 3.66663 22C3.66663 32.0833 11.9166 40.3333 22 40.3333C32.0833 40.3333 40.3333 32.0833 40.3333 22C40.3333 11.9166 32.0833 3.66663 22 3.66663ZM22 36.6666C13.915 36.6666 7.33329 30.085 7.33329 22C7.33329 13.915 13.915 7.33329 22 7.33329C30.085 7.33329 36.6666 13.915 36.6666 22C36.6666 30.085 30.085 36.6666 22 36.6666ZM22.9166 12.8333H20.1666V23.8333L29.7 29.7L31.1666 27.3166L22.9166 22.3666V12.8333Z" fill="white"/>
</svg>
