<svg width="67" height="67" viewBox="0 0 67 67" fill="none" xmlns="http://www.w3.org/2000/svg">
<circle cx="33.5" cy="33.5" r="33.5" fill="#115153"/>
<path d="M20.3293 52.6836C19.227 52.6836 18.2837 52.2914 17.4993 51.5071C16.715 50.7228 16.3221 49.7788 16.3208 48.6751V20.6152C16.3208 19.5129 16.7136 18.5695 17.4993 17.7852C18.285 17.0009 19.2283 16.608 20.3293 16.6067H22.3336V12.5981H26.3422V16.6067H42.3764V12.5981H46.3849V16.6067H48.3892C49.4915 16.6067 50.4355 16.9995 51.2212 17.7852C52.0069 18.5709 52.3991 19.5142 52.3977 20.6152V33.3925L48.3892 37.401V28.6323H20.3293V48.6751H32.7558L36.7644 52.6836H20.3293ZM43.4787 53.6858L36.3635 46.5706L39.1695 43.7646L43.4286 48.0237L51.9468 39.5055L54.7527 42.3616L43.4787 53.6858Z" fill="white"/>
</svg>
