<svg width="75" height="75" viewBox="0 0 75 75" fill="none" xmlns="http://www.w3.org/2000/svg">
<path d="M20.2919 7.73486H21.6625C28.8807 8.80228 30.8376 12.8987 37.1276 12.8987C43.4176 12.8987 45.3746 8.80228 52.5943 7.73486H53.3709C55.3008 7.73486 57.2119 8.11499 58.9949 8.85355C60.778 9.59211 62.3981 10.6746 63.7627 12.0393C65.1274 13.404 66.2099 15.0241 66.9485 16.8071C67.687 18.5902 68.0672 20.5012 68.0672 22.4311V23.3996C68.0672 27.8904 63.287 33.0171 61.8793 37.8746C60.3864 43.0322 59.3639 47.2493 59.0638 51.6597C58.3599 61.9951 54.8359 66.52 51.0504 66.52C45.3978 66.52 40.3794 43.354 37.2251 43.354C34.0693 43.354 27.8117 66.52 23.2048 66.52C20.394 66.52 16.7539 64.857 15.3864 51.6597C14.8419 46.4093 13.923 43.2241 12.376 37.8746C11.0147 33.1718 6.42324 27.5532 6.1881 22.51C6.09939 20.6027 6.39847 18.6972 7.06723 16.9088C7.736 15.1204 8.76055 13.4862 10.0789 12.105C11.3973 10.7239 12.9822 9.6245 14.7376 8.87335C16.493 8.1222 18.3825 7.73489 20.2919 7.73486Z" stroke="#115153" stroke-width="6"/>
<path d="M23.9507 19.2799L49.5052 27.5191M23.9507 27.5191L49.5052 19.2799" stroke="#115153" stroke-width="6" stroke-linecap="round"/>
</svg>
