<svg width="50" height="50" viewBox="0 0 50 50" fill="none" xmlns="http://www.w3.org/2000/svg">
<mask id="mask0_376_1505" style="mask-type:luminance" maskUnits="userSpaceOnUse" x="3" y="4" width="44" height="42">
<path fill-rule="evenodd" clip-rule="evenodd" d="M13.6635 5.2085H14.5864C19.4468 5.92725 20.7646 8.68558 25 8.68558C29.2354 8.68558 30.5531 5.92725 35.4146 5.2085H35.9375C37.237 5.2085 38.5238 5.46446 39.7244 5.96177C40.9251 6.45908 42.016 7.18801 42.9349 8.10692C43.8538 9.02583 44.5827 10.1167 45.08 11.3174C45.5773 12.518 45.8333 13.8048 45.8333 15.1043V15.7564C45.8333 18.7804 42.6145 22.2325 41.6666 25.5033C40.6614 28.9762 39.9729 31.8158 39.7708 34.7856C39.2968 41.745 36.9239 44.7918 34.375 44.7918C30.5687 44.7918 27.1896 29.1929 25.0656 29.1929C22.9406 29.1929 18.7271 44.7918 15.625 44.7918C13.7323 44.7918 11.2812 43.672 10.3604 34.7856C9.99372 31.2502 9.37497 29.1054 8.3333 25.5033C7.41664 22.3366 4.32497 18.5533 4.16664 15.1575C4.10691 13.8732 4.30829 12.5901 4.75861 11.3858C5.20893 10.1816 5.89882 9.08119 6.78656 8.15118C7.6743 7.22118 8.74146 6.4809 9.92348 5.9751C11.1055 5.46931 12.3778 5.20852 13.6635 5.2085Z" fill="white" stroke="white" stroke-width="2"/>
<path d="M16.1271 12.9824L33.3344 18.5303M16.1271 18.5303L33.3344 12.9824" stroke="black" stroke-width="2" stroke-linecap="round"/>
</mask>
<g mask="url(#mask0_376_1505)">
<path d="M0 0H50V50H0V0Z" fill="#545454"/>
</g>
</svg>
