<svg width="80" height="80" viewBox="0 0 80 80" fill="none" xmlns="http://www.w3.org/2000/svg">
<path d="M36.5332 70C35.7577 70 35.0855 69.7456 34.5166 69.2367C33.9455 68.7278 33.591 68.0933 33.4532 67.3334L32.5766 60.36C31.5121 60.0378 30.361 59.5333 29.1232 58.8467C27.8877 58.1578 26.8355 57.42 25.9666 56.6334L19.5832 59.38C18.8788 59.6911 18.1632 59.7245 17.4366 59.48C16.7099 59.2356 16.1499 58.7745 15.7566 58.0967L12.1599 51.9C11.7666 51.2222 11.651 50.5134 11.8132 49.7733C11.9755 49.0334 12.3621 48.4267 12.9732 47.9534L18.5466 43.7867C18.4466 43.1822 18.3655 42.5611 18.3032 41.9233C18.2366 41.2833 18.2032 40.6622 18.2032 40.06C18.2032 39.5 18.2366 38.9111 18.3032 38.2934C18.3655 37.6756 18.4466 36.98 18.5466 36.2067L12.9732 32.04C12.3621 31.5667 11.9866 30.95 11.8466 30.19C11.7066 29.43 11.8321 28.71 12.2232 28.03L15.7566 22.03C16.1499 21.3922 16.7099 20.9411 17.4366 20.6767C18.1632 20.4122 18.8788 20.4356 19.5832 20.7467L25.9032 23.4267C26.8988 22.5978 27.9766 21.85 29.1366 21.1833C30.2921 20.5167 31.4177 20.0011 32.5132 19.6367L33.4566 12.6633C33.5921 11.9033 33.9455 11.2689 34.5166 10.76C35.0877 10.2511 35.7599 9.99779 36.5332 10H43.4666C44.2421 10 44.9144 10.2545 45.4832 10.7633C46.0544 11.2722 46.4088 11.9067 46.5466 12.6667L47.4232 19.7067C48.701 20.1556 49.8299 20.67 50.8099 21.25C51.7899 21.83 52.7999 22.5567 53.8399 23.43L60.4799 20.75C61.1866 20.4389 61.9032 20.4156 62.6299 20.68C63.3566 20.9445 63.9155 21.3956 64.3066 22.0333L67.8399 28.0967C68.2332 28.7767 68.3488 29.4856 68.1866 30.2234C68.0244 30.9611 67.6377 31.5689 67.0266 32.0467L61.1999 36.4C61.3821 37.0889 61.4844 37.7211 61.5066 38.2967C61.5288 38.8722 61.5399 39.4389 61.5399 39.9967C61.5399 40.5145 61.5177 41.06 61.4732 41.6334C61.431 42.2089 61.3332 42.9045 61.1799 43.72L66.8132 47.9534C67.4244 48.4267 67.8221 49.0334 68.0066 49.7733C68.191 50.5134 68.0866 51.2222 67.6932 51.9L64.1399 58.03C63.7488 58.71 63.1788 59.1711 62.4299 59.4133C61.681 59.6578 60.9544 59.6245 60.2499 59.3134L53.8399 56.5667C52.8021 57.44 51.7577 58.1878 50.7066 58.81C49.6555 59.4322 48.561 59.9267 47.4232 60.2934L46.5432 67.33C46.4077 68.09 46.0544 68.7245 45.4832 69.2333C44.9121 69.7422 44.2399 69.9978 43.4666 70H36.5332ZM39.9099 48.3334C42.2344 48.3334 44.2044 47.5256 45.8199 45.91C47.4355 44.2945 48.2432 42.3245 48.2432 40C48.2432 37.6756 47.4355 35.7056 45.8199 34.09C44.2044 32.4745 42.2344 31.6667 39.9099 31.6667C37.5721 31.6667 35.5988 32.4745 33.9899 34.09C32.381 35.7056 31.5766 37.6756 31.5766 40C31.5766 42.3245 32.381 44.2945 33.9899 45.91C35.5988 47.5256 37.5721 48.3334 39.9099 48.3334Z" fill="#545454"/>
</svg>
