<svg width="30" height="30" viewBox="0 0 30 30" fill="none" xmlns="http://www.w3.org/2000/svg">
<path d="M15 1.875C7.75195 1.875 1.875 7.75195 1.875 15C1.875 22.248 7.75195 28.125 15 28.125C22.248 28.125 28.125 22.248 28.125 15C28.125 7.75195 22.248 1.875 15 1.875ZM15.6533 21.3633L15.6592 22.292C15.6592 22.4209 15.5537 22.5293 15.4248 22.5293H14.5928C14.4639 22.5293 14.3584 22.4238 14.3584 22.2949V21.375C11.7568 21.1816 10.5322 19.6992 10.4004 18.0879C10.3887 17.9502 10.4971 17.833 10.6348 17.833H11.9883C12.1025 17.833 12.2021 17.915 12.2197 18.0264C12.3691 18.9551 13.0928 19.6494 14.3906 19.8223V15.6416L13.667 15.457C12.1348 15.0908 10.6758 14.1357 10.6758 12.1553C10.6758 10.0195 12.2988 8.87109 14.373 8.66895V7.70215C14.373 7.57324 14.4785 7.46777 14.6074 7.46777H15.4307C15.5596 7.46777 15.665 7.57324 15.665 7.70215V8.66016C17.6719 8.8623 19.1777 10.0342 19.3535 11.8594C19.3682 11.9971 19.2598 12.1172 19.1191 12.1172H17.8037C17.6865 12.1172 17.5869 12.0293 17.5723 11.915C17.4551 11.0596 16.7695 10.3623 15.6533 10.21V14.1445L16.3975 14.3174C18.2959 14.7861 19.5879 15.6943 19.5879 17.7275C19.5879 19.9336 17.9473 21.1641 15.6533 21.3633ZM12.498 12.0205C12.498 12.7646 12.958 13.3418 13.9482 13.6992C14.0859 13.7549 14.2236 13.7988 14.3877 13.8457V10.2129C13.3066 10.3506 12.498 10.957 12.498 12.0205ZM15.9111 15.9814C15.8291 15.9639 15.7471 15.9434 15.6533 15.917V19.834C16.9014 19.7227 17.7627 19.0371 17.7627 17.8887C17.7627 16.9893 17.2969 16.4033 15.9111 15.9814Z" fill="white"/>
</svg>
