<svg width="28" height="50" viewBox="0 0 28 50" fill="none" xmlns="http://www.w3.org/2000/svg">
<path d="M20.3389 22.793L9.83889 19.707C8.62361 19.3555 7.77778 18.2129 7.77778 16.9434C7.77778 15.3516 9.06111 14.0625 10.6458 14.0625H17.0917C18.2778 14.0625 19.4444 14.4238 20.4167 15.0879C21.0097 15.4883 21.8069 15.3906 22.3125 14.8926L25.6958 11.5723C26.3861 10.8984 26.2889 9.77539 25.5208 9.17969C23.1389 7.30469 20.1639 6.25977 17.1111 6.25V1.5625C17.1111 0.703125 16.4111 0 15.5556 0H12.4444C11.5889 0 10.8889 0.703125 10.8889 1.5625V6.25H10.6458C4.45278 6.25 -0.525002 11.5918 0.0486092 17.9297C0.456943 22.4316 3.87917 26.0938 8.19583 27.3633L18.1611 30.293C19.3764 30.6543 20.2222 31.7871 20.2222 33.0566C20.2222 34.6484 18.9389 35.9375 17.3542 35.9375H10.9083C9.72222 35.9375 8.55555 35.5762 7.58333 34.9121C6.99028 34.5117 6.19305 34.6094 5.6875 35.1074L2.30416 38.4277C1.61389 39.1016 1.71111 40.2246 2.47916 40.8203C4.86111 42.6953 7.83611 43.7402 10.8889 43.75V48.4375C10.8889 49.2969 11.5889 50 12.4444 50H15.5556C16.4111 50 17.1111 49.2969 17.1111 48.4375V43.7305C21.6417 43.6426 25.8903 40.9375 27.3875 36.6309C29.4778 30.6152 25.9681 24.4434 20.3389 22.793Z" fill="#545454"/>
</svg>
