<svg width="50" height="81" viewBox="0 0 50 81" fill="none" xmlns="http://www.w3.org/2000/svg">
<path d="M25 0C27.7656 0 30 2.23438 30 5V10.5781C30.25 10.6094 30.4844 10.6406 30.7344 10.6875C30.7969 10.7031 30.8437 10.7031 30.9062 10.7188L38.4062 12.0938C41.125 12.5938 42.9219 15.2031 42.4219 17.9062C41.9219 20.6094 39.3125 22.4219 36.6094 21.9219L29.1875 20.5625C24.2969 19.8438 19.9844 20.3281 16.9531 21.5312C13.9219 22.7344 12.7031 24.3906 12.4219 25.9219C12.1094 27.5937 12.3437 28.5312 12.6094 29.1094C12.8906 29.7188 13.4687 30.4062 14.6094 31.1719C17.1562 32.8438 21.0625 33.9375 26.125 35.2812L26.5781 35.4062C31.0469 36.5938 36.5156 38.0312 40.5781 40.6875C42.7969 42.1406 44.8906 44.1094 46.1875 46.8594C47.5156 49.6562 47.7969 52.7812 47.1875 56.1094C46.1094 62.0469 42.0156 66.0156 36.9375 68.0938C34.7969 68.9688 32.4687 69.5312 30 69.8125V75.0312C30 77.7969 27.7656 80.0312 25 80.0312C22.2344 80.0312 20 77.7969 20 75.0312V69.5781C19.9375 69.5625 19.8594 69.5625 19.7969 69.5469H19.7656C15.9531 68.9531 9.6875 67.3125 5.46875 65.4375C2.95312 64.3125 1.8125 61.3594 2.9375 58.8438C4.0625 56.3281 7.01562 55.1875 9.53125 56.3125C12.7969 57.7656 18.1719 59.2031 21.2812 59.6875C26.2656 60.4219 30.375 60 33.1562 58.8594C35.7969 57.7812 37 56.2188 37.3437 54.3438C37.6406 52.6875 37.4062 51.7344 37.1406 51.1562C36.8437 50.5312 36.2656 49.8438 35.1094 49.0781C32.5469 47.4062 28.625 46.3125 23.5469 44.9688L23.1094 44.8594C18.6562 43.6406 13.1875 42.1875 9.125 39.5312C6.90625 38.0781 4.82812 36.0938 3.53125 33.3438C2.21875 30.5469 1.95312 27.4219 2.57812 24.0938C3.70312 18.125 8.17187 14.25 13.25 12.2344C15.3281 11.4062 17.6094 10.8438 20 10.5156V5C20 2.23438 22.2344 0 25 0Z" fill="#115153"/>
</svg>
