<svg width="67" height="67" viewBox="0 0 67 67" fill="none" xmlns="http://www.w3.org/2000/svg">
<path d="M33.5002 47.4585C34.2911 47.4585 34.9546 47.1905 35.4906 46.6545C36.0266 46.1185 36.2937 45.4559 36.2918 44.6668C36.29 43.8777 36.022 43.2152 35.4878 42.6792C34.9537 42.1432 34.2911 41.8752 33.5002 41.8752C32.7092 41.8752 32.0466 42.1432 31.5125 42.6792C30.9784 43.2152 30.7104 43.8777 30.7085 44.6668C30.7066 45.4559 30.9746 46.1194 31.5125 46.6573C32.0504 47.1952 32.7129 47.4622 33.5002 47.4585ZM33.5002 36.2918C34.2911 36.2918 34.9546 36.0238 35.4906 35.4878C36.0266 34.9518 36.2937 34.2893 36.2918 33.5002V22.3335C36.2918 21.5425 36.0238 20.88 35.4878 20.3458C34.9518 19.8117 34.2893 19.5437 33.5002 19.5418C32.7111 19.54 32.0485 19.808 31.5125 20.3458C30.9765 20.8837 30.7085 21.5462 30.7085 22.3335V33.5002C30.7085 34.2911 30.9765 34.9546 31.5125 35.4906C32.0485 36.0266 32.7111 36.2937 33.5002 36.2918ZM33.5002 61.4168C29.6384 61.4168 26.0092 60.6836 22.6127 59.217C19.2161 57.7504 16.2616 55.7619 13.7491 53.2512C11.2366 50.7406 9.24803 47.7861 7.78333 44.3877C6.31864 40.9893 5.58536 37.3601 5.5835 33.5002C5.58164 29.6402 6.31492 26.0111 7.78333 22.6127C9.25175 19.2143 11.2403 16.2598 13.7491 13.7491C16.2579 11.2385 19.2124 9.24989 22.6127 7.78333C26.0129 6.31677 29.6421 5.5835 33.5002 5.5835C37.3582 5.5835 40.9874 6.31677 44.3877 7.78333C47.7879 9.24989 50.7424 11.2385 53.2512 13.7491C55.76 16.2598 57.7495 19.2143 59.2198 22.6127C60.6901 26.0111 61.4224 29.6402 61.4168 33.5002C61.4113 37.3601 60.678 40.9893 59.217 44.3877C57.756 47.7861 55.7674 50.7406 53.2512 53.2512C50.735 55.7619 47.7805 57.7514 44.3877 59.2198C40.9949 60.6882 37.3657 61.4206 33.5002 61.4168Z" fill="#BC0E0E"/>
</svg>
