<svg width="27" height="27" viewBox="0 0 27 27" fill="none" xmlns="http://www.w3.org/2000/svg">
<path fill-rule="evenodd" clip-rule="evenodd" d="M9.0944 17.6156C13.3734 21.8946 17.3386 22.3631 18.5026 22.4065C19.9093 22.4577 21.3449 21.3092 21.9659 20.1329C20.9754 18.9711 19.6856 18.0697 18.2734 17.0926C17.4398 17.925 16.4127 19.4719 15.0449 18.9177C14.267 18.605 12.3462 17.7202 10.668 16.0409C8.98979 14.3616 8.10505 12.4419 7.79011 11.6651C7.2359 10.2951 8.78725 9.26571 9.62079 8.43217C8.64369 6.99656 7.75784 5.67335 6.59822 4.73297C5.40522 5.35618 4.25006 6.78066 4.30236 8.20626C4.34577 9.37032 4.81429 13.3355 9.0944 17.6156ZM18.4203 24.6312C16.8177 24.5722 12.2761 23.9445 7.51968 19.1892C2.76437 14.4328 2.13782 9.89226 2.07773 8.28861C1.9887 5.84474 3.86055 3.47098 6.02287 2.54395C6.28325 2.43151 6.5684 2.38871 6.85032 2.41973C7.13225 2.45075 7.40126 2.55453 7.63097 2.7209C9.42047 4.0263 10.6546 6.00388 11.7152 7.553C11.9358 7.87512 12.0369 8.26424 12.0009 8.65301C11.965 9.04179 11.7942 9.40575 11.5182 9.68193L10.0092 11.1921C10.3597 11.9655 11.0731 13.2988 12.2416 14.4673C13.4101 15.6358 14.7433 16.3492 15.5179 16.6997L17.0259 15.1907C17.3028 14.9135 17.6683 14.7426 18.0585 14.7078C18.4488 14.673 18.8388 14.7766 19.1603 15.0004C20.7406 16.0954 22.5969 17.3118 23.9502 19.0445C24.13 19.2759 24.2444 19.5513 24.2814 19.8421C24.3184 20.1328 24.2767 20.4281 24.1605 20.6972C23.229 22.8706 20.8719 24.7213 18.4203 24.6312Z" fill="#115153"/>
</svg>
