<svg width="50" height="50" viewBox="0 0 50 50" fill="none" xmlns="http://www.w3.org/2000/svg">
<path fill-rule="evenodd" clip-rule="evenodd" d="M16.8875 5.31883C17.0604 4.97283 17.3262 4.68179 17.6552 4.47832C17.9841 4.27484 18.3632 4.16695 18.75 4.16675H31.25C31.6368 4.16695 32.0159 4.27484 32.3448 4.47832C32.6738 4.68179 32.9396 4.97283 33.1125 5.31883L36.7042 12.5001H41.6667C42.2192 12.5001 42.7491 12.7196 43.1398 13.1103C43.5305 13.501 43.75 14.0309 43.75 14.5834C43.75 15.1359 43.5305 15.6659 43.1398 16.0566C42.7491 16.4473 42.2192 16.6667 41.6667 16.6667H39.5833V39.5834C39.5833 41.241 38.9249 42.8307 37.7528 44.0028C36.5806 45.1749 34.9909 45.8334 33.3333 45.8334H16.6667C15.0091 45.8334 13.4194 45.1749 12.2472 44.0028C11.0751 42.8307 10.4167 41.241 10.4167 39.5834V16.6667H8.33333C7.7808 16.6667 7.25089 16.4473 6.86019 16.0566C6.46949 15.6659 6.25 15.1359 6.25 14.5834C6.25 14.0309 6.46949 13.501 6.86019 13.1103C7.25089 12.7196 7.7808 12.5001 8.33333 12.5001H13.2958L16.8875 5.31883ZM29.9625 8.33341L32.0458 12.5001H17.9542L20.0375 8.33341H29.9625ZM22.9167 22.9167C22.9167 22.3642 22.6972 21.8343 22.3065 21.4436C21.9158 21.0529 21.3859 20.8334 20.8333 20.8334C20.2808 20.8334 19.7509 21.0529 19.3602 21.4436C18.9695 21.8343 18.75 22.3642 18.75 22.9167V35.4167C18.75 35.9693 18.9695 36.4992 19.3602 36.8899C19.7509 37.2806 20.2808 37.5001 20.8333 37.5001C21.3859 37.5001 21.9158 37.2806 22.3065 36.8899C22.6972 36.4992 22.9167 35.9693 22.9167 35.4167V22.9167ZM31.25 22.9167C31.25 22.3642 31.0305 21.8343 30.6398 21.4436C30.2491 21.0529 29.7192 20.8334 29.1667 20.8334C28.6141 20.8334 28.0842 21.0529 27.6935 21.4436C27.3028 21.8343 27.0833 22.3642 27.0833 22.9167V35.4167C27.0833 35.9693 27.3028 36.4992 27.6935 36.8899C28.0842 37.2806 28.6141 37.5001 29.1667 37.5001C29.7192 37.5001 30.2491 37.2806 30.6398 36.8899C31.0305 36.4992 31.25 35.9693 31.25 35.4167V22.9167Z" fill="white"/>
</svg>
