<svg width="50" height="50" viewBox="0 0 50 50" fill="none" xmlns="http://www.w3.org/2000/svg">
<path fill-rule="evenodd" clip-rule="evenodd" d="M16.6667 14.5833C16.6667 12.3732 17.5446 10.2536 19.1074 8.69078C20.6702 7.12797 22.7899 6.25 25 6.25C27.2101 6.25 29.3298 7.12797 30.8926 8.69078C32.4554 10.2536 33.3333 12.3732 33.3333 14.5833C33.3333 16.7935 32.4554 18.9131 30.8926 20.4759C29.3298 22.0387 27.2101 22.9167 25 22.9167C22.7899 22.9167 20.6702 22.0387 19.1074 20.4759C17.5446 18.9131 16.6667 16.7935 16.6667 14.5833ZM16.6667 27.0833C13.904 27.0833 11.2545 28.1808 9.30097 30.1343C7.34747 32.0878 6.25 34.7373 6.25 37.5C6.25 39.1576 6.90848 40.7473 8.08058 41.9194C9.25269 43.0915 10.8424 43.75 12.5 43.75H37.5C39.1576 43.75 40.7473 43.0915 41.9194 41.9194C43.0915 40.7473 43.75 39.1576 43.75 37.5C43.75 34.7373 42.6525 32.0878 40.699 30.1343C38.7455 28.1808 36.096 27.0833 33.3333 27.0833H16.6667Z" fill="#DDE0EB"/>
</svg>
